<svg width="1657" height="473" viewBox="0 0 1657 473" fill="none" xmlns="http://www.w3.org/2000/svg">
<g clip-path="url(#clip0_30_14)">
<path d="M9.29932 100.168L12.1606 75.8472H80.8325L83.6938 100.168C80.5464 103.888 75.2052 107.179 67.6704 110.04V243.95C75.2052 247.002 80.5464 250.245 83.6938 253.679L80.8325 278H12.1606L9.29932 253.679C11.8745 250.34 17.2633 247.098 25.4658 243.95V110.04C17.3587 107.179 11.9699 103.888 9.29932 100.168ZM149.791 167.553V244.666C157.039 247.336 162.38 250.913 165.814 255.396L162.953 278H105.583L102.579 255.396C106.203 250.913 111.592 247.336 118.745 244.666V109.182C110.733 106.32 105.154 102.744 102.006 98.4517L104.868 75.8472H165.242L223.613 189.585C225.806 193.686 227.905 198.503 229.908 204.035C232.006 209.471 234.104 215.575 236.203 222.347L238.206 229.357L241.496 228.213C238.73 210.854 237.347 196.595 237.347 185.436V109.468C230.098 106.702 224.757 103.03 221.324 98.4517L224.185 75.8472H281.555L284.559 98.4517C280.935 103.03 275.546 106.702 268.393 109.468V278H222.468L163.525 163.404C159.328 155.487 155.132 144.471 150.935 130.355L148.932 123.631L145.642 124.776C148.408 142.135 149.791 156.394 149.791 167.553ZM300.583 100.168L303.444 75.8472H437.068V126.779L415.465 129.497C410.887 125.587 407.262 118.338 404.592 107.751H358.954V161.115H399.584C402.064 155.201 404.496 151.1 406.881 148.811L425.336 150.814V203.033L406.881 205.322C404.496 203.51 402.064 199.409 399.584 193.019H358.954V241.661C372.02 244.618 381.463 248.624 387.281 253.679L384.419 278H303.444L300.583 253.679C303.158 250.34 308.547 247.098 316.749 243.95V110.04C308.642 107.179 303.253 103.888 300.583 100.168ZM624.056 171.845C624.056 192.16 621.814 209.233 617.332 223.062C612.849 236.892 606.554 248.004 598.447 256.397C590.435 264.79 580.993 270.847 570.12 274.566C559.342 278.286 547.611 280.146 534.925 280.146C517.471 280.146 502.64 276.712 490.432 269.845C478.319 262.883 469.067 251.771 462.677 236.511C456.382 221.25 453.234 201.078 453.234 175.994C453.234 141.276 461.055 115.477 476.697 98.5947C492.435 81.6175 513.799 73.1289 540.791 73.1289C568.451 73.1289 589.243 80.8545 603.168 96.3057C617.093 111.661 624.056 136.841 624.056 171.845ZM580.277 176.852C580.277 130.022 566.209 106.606 538.073 106.606C524.911 106.606 514.848 111.661 507.886 121.771C505.024 125.968 502.735 131.643 501.019 138.796C499.302 145.854 498.157 153.675 497.585 162.259C497.013 170.843 497.06 179.475 497.728 188.154C498.396 196.738 499.588 204.702 501.305 212.046C503.117 219.39 505.501 225.352 508.458 229.93C515.897 241.47 526.103 247.241 539.074 247.241C552.046 247.241 562.156 241.852 569.404 231.074C576.653 220.201 580.277 202.127 580.277 176.852ZM716.763 213.477H649.235L646.374 194.735C652.383 187.964 661.158 184.578 672.698 184.578H740.083L743.087 203.319C737.174 210.091 728.399 213.477 716.763 213.477ZM837.082 207.611H823.919V242.233C838.035 245.381 846.905 249.196 850.53 253.679L847.525 278H768.41L765.548 253.679C768.124 250.34 773.512 247.098 781.715 243.95V110.04C773.608 107.179 768.219 103.888 765.548 100.168L768.41 75.8472H846.095C864.216 76.0379 879.238 78.2316 891.161 82.4282C903.178 86.5295 912.144 93.3013 918.057 102.744C923.971 112.186 926.927 125.014 926.927 141.229C926.927 185.484 896.979 207.611 837.082 207.611ZM841.374 107.751H823.919V175.708H843.52C856.777 175.708 866.649 173.085 873.134 167.839C879.715 162.498 883.006 153.341 883.006 140.37C883.006 127.303 879.429 118.624 872.276 114.332C865.218 109.945 854.917 107.751 841.374 107.751ZM1098.75 204.75C1098.75 230.311 1092.93 249.291 1081.3 261.69C1069.76 274.09 1051.01 280.289 1025.07 280.289C1007.71 280.289 993.882 277.618 983.582 272.277C973.281 266.841 965.889 258.543 961.406 247.384C956.924 236.225 954.682 222.013 954.682 204.75V110.04C947.147 107.274 941.758 103.984 938.516 100.168L941.377 75.8472H1010.05L1012.91 100.168C1009.76 103.888 1004.42 107.179 996.887 110.04V205.895C996.887 220.01 999.176 230.454 1003.75 237.226C1008.33 243.903 1016.58 247.241 1028.5 247.241C1040.43 247.241 1048.82 243.807 1053.68 236.94C1058.55 229.977 1060.98 219.629 1060.98 205.895V110.04C1052.87 107.179 1047.48 103.888 1044.81 100.168L1047.82 75.8472H1111.91L1114.92 100.168C1111.77 103.888 1106.38 107.179 1098.75 110.04V204.75ZM1140.38 120.341L1121.93 118.052V76.1333H1286.02V118.052L1267.57 120.341C1264.99 118.529 1262.56 114.427 1260.27 108.037H1225.08V243.95C1232.71 247.002 1238.1 250.245 1241.24 253.679L1238.24 278H1169.71L1166.71 253.679C1169.28 250.34 1174.67 247.098 1182.87 243.95V108.037H1147.68C1145.39 114.427 1142.96 118.529 1140.38 120.341ZM1453.27 204.75C1453.27 230.311 1447.45 249.291 1435.81 261.69C1424.27 274.09 1405.53 280.289 1379.59 280.289C1362.23 280.289 1348.4 277.618 1338.1 272.277C1327.8 266.841 1320.41 258.543 1315.92 247.384C1311.44 236.225 1309.2 222.013 1309.2 204.75V110.04C1301.67 107.274 1296.28 103.984 1293.03 100.168L1295.9 75.8472H1364.57L1367.43 100.168C1364.28 103.888 1358.94 107.179 1351.41 110.04V205.895C1351.41 220.01 1353.69 230.454 1358.27 237.226C1362.85 243.903 1371.1 247.241 1383.02 247.241C1394.95 247.241 1403.34 243.807 1408.2 236.94C1413.07 229.977 1415.5 219.629 1415.5 205.895V110.04C1407.39 107.179 1402 103.888 1399.33 100.168L1402.34 75.8472H1466.43L1469.44 100.168C1466.29 103.888 1460.9 107.179 1453.27 110.04V204.75ZM1573.44 107.751C1566.77 106.034 1559.85 105.176 1552.7 105.176C1545.45 105.176 1539.63 106.94 1535.25 110.469C1530.76 114.094 1528.52 119.196 1528.52 125.777C1528.52 132.358 1530.19 137.509 1533.53 141.229C1536.87 144.853 1543.4 148.048 1553.13 150.814L1579.31 158.396C1593.33 162.498 1604.49 168.936 1612.79 177.71C1621.09 186.39 1625.23 199.123 1625.23 215.909C1625.23 229.167 1621.94 240.612 1615.36 250.245C1608.78 259.878 1599.82 267.318 1588.47 272.563C1577.21 277.714 1564.48 280.289 1550.27 280.289C1538.54 280.289 1526.47 278.811 1514.07 275.854C1501.67 272.802 1491.37 268.558 1483.17 263.121V256.254C1483.17 254.06 1483.46 250.722 1484.03 246.239C1484.7 241.757 1485.6 237.083 1486.75 232.219C1487.99 227.259 1489.42 223.062 1491.04 219.629H1518.94C1522.08 225.828 1523.94 233.936 1524.52 243.95C1531.1 246.907 1539.06 248.385 1548.41 248.385C1557.47 248.385 1564.91 246.239 1570.73 241.947C1576.64 237.655 1579.6 231.503 1579.6 223.492C1579.6 219.677 1579.31 216.577 1578.74 214.192C1578.17 211.713 1576.35 209.09 1573.3 206.324C1570.25 203.558 1565.91 201.269 1560.28 199.457L1530.1 190.729C1499.38 182.05 1484.03 162.498 1484.03 132.072C1484.03 120.245 1486.94 109.945 1492.75 101.17C1498.67 92.3952 1506.87 85.5757 1517.36 80.7114C1527.85 75.8472 1540.06 73.415 1553.99 73.415C1574.88 73.415 1595.24 78.1362 1615.08 87.5786V94.3027C1615.08 96.4964 1614.74 99.8823 1614.08 104.46C1613.5 108.943 1612.6 113.617 1611.36 118.481C1610.21 123.345 1608.78 127.494 1607.06 130.928H1579.31C1575.97 126.159 1574.02 118.433 1573.44 107.751Z" fill="#005720"/>
<path d="M17.423 417.146C17.423 413.954 17.9107 409.831 18.886 404.777C19.95 399.634 21.28 394.137 22.876 388.285C24.5607 382.344 26.467 376.315 28.595 370.197C30.723 363.99 32.8953 358.183 35.112 352.774C37.3287 347.365 39.501 342.621 41.629 338.543C43.757 334.464 45.6633 331.538 47.348 329.765C48.2347 329.853 49.3873 330.208 50.806 330.829C52.3133 331.361 53.8207 332.026 55.328 332.824C56.8353 333.622 58.2097 334.509 59.451 335.484C60.6923 336.371 61.4903 337.213 61.845 338.011C59.2737 340.316 56.7023 343.818 54.131 348.518C51.6483 353.129 49.21 358.404 46.816 364.345C44.5107 370.286 42.3383 376.581 40.299 383.231C38.2597 389.792 36.4863 396.176 34.979 402.383C33.4717 408.59 32.2747 414.353 31.388 419.673C30.59 424.993 30.191 429.293 30.191 432.574C30.191 434.081 30.324 435.012 30.59 435.367C28.6393 435.278 27.2207 434.924 26.334 434.303C25.4473 433.771 24.738 433.15 24.206 432.441C23.7627 431.82 23.3193 431.155 22.876 430.446C22.5213 429.825 21.945 429.338 21.147 428.983C20.5263 428.717 19.9943 428.096 19.551 427.121C19.1077 426.146 18.7087 425.082 18.354 423.929C18.088 422.688 17.8663 421.446 17.689 420.205C17.5117 418.964 17.423 417.944 17.423 417.146ZM79.5111 360.222C81.8165 360.931 83.9888 362.527 86.0281 365.01C88.0675 367.404 89.5748 370.064 90.5501 372.99C89.5748 375.384 88.0675 378.266 86.0281 381.635C83.9888 385.004 81.9495 388.462 79.9101 392.009C77.8708 395.467 76.0088 398.792 74.3241 401.984C72.7281 405.087 71.7971 407.659 71.5311 409.698C72.9498 408.191 74.5015 406.462 76.1861 404.511C77.9595 402.472 79.6441 400.477 81.2401 398.526C82.9248 396.487 84.4765 394.669 85.8951 393.073C87.3138 391.388 88.4221 390.147 89.2201 389.349C90.9048 387.576 92.8998 385.536 95.2051 383.231C97.5105 380.837 99.9045 378.62 102.387 376.581C104.958 374.453 107.53 372.68 110.101 371.261C112.672 369.754 115.022 369 117.15 369C119.455 369 121.362 369.798 122.869 371.394C124.465 372.901 125.706 374.497 126.593 376.182C126.593 376.359 126.238 376.625 125.529 376.98C124.908 377.246 123.977 378.088 122.736 379.507C121.495 381.103 120.076 383.32 118.48 386.157C116.973 388.906 115.465 391.92 113.958 395.201C112.539 398.393 111.342 401.674 110.367 405.043C109.392 408.412 108.904 411.471 108.904 414.22C108.904 416.437 109.17 417.855 109.702 418.476C110.323 419.097 111.165 419.407 112.229 419.407C113.204 419.407 114.224 419.185 115.288 418.742C116.352 418.299 117.194 418.077 117.815 418.077C118.17 418.254 118.436 418.653 118.613 419.274C118.879 419.806 119.012 420.294 119.012 420.737C118.303 421.358 117.46 421.978 116.485 422.599C115.51 423.22 114.49 423.796 113.426 424.328C112.362 424.86 111.298 425.303 110.234 425.658C109.259 426.013 108.372 426.19 107.574 426.19C105.003 426.19 102.875 425.791 101.19 424.993C99.5941 424.284 98.3085 423.308 97.3331 422.067C96.4465 420.826 95.8258 419.363 95.4711 417.678C95.1165 415.905 94.9391 414.043 94.9391 412.092C94.9391 411.028 95.0278 409.831 95.2051 408.501C95.3825 407.171 95.7371 405.619 96.2691 403.846C96.8011 401.984 97.5548 399.812 98.5301 397.329C99.5055 394.758 100.747 391.699 102.254 388.152C102.077 388.152 100.88 388.773 98.6631 390.014C96.4465 391.255 94.0525 393.162 91.4811 395.733C87.3138 399.723 83.5455 403.669 80.1761 407.57C76.8955 411.471 73.5261 415.816 70.0681 420.604C68.1175 423.353 66.3885 425.658 64.8811 427.52C63.4625 429.471 62.2211 430.756 61.1571 431.377C59.2951 430.313 57.9208 428.806 57.0341 426.855C56.1475 424.993 55.4825 423.042 55.0391 421.003C55.0391 419.318 55.2608 417.19 55.7041 414.619C56.2361 412.048 56.9011 409.21 57.6991 406.107C58.5858 402.915 59.6498 399.59 60.8911 396.132C62.1325 392.674 63.5068 389.216 65.0141 385.758C68.3835 377.955 71.4425 371.837 74.1911 367.404C77.0285 362.97 78.8018 360.576 79.5111 360.222ZM142.425 463.164C140.209 462.277 138.879 460.593 138.435 458.11C138.081 455.716 136.573 453.765 133.913 452.258C134.623 447.736 135.421 443.17 136.307 438.559C137.194 433.948 138.302 428.717 139.632 422.865C141.051 416.924 142.78 410.053 144.819 402.25C146.947 394.359 149.607 384.827 152.799 373.655C149.873 373.655 147.568 373.699 145.883 373.788C144.199 373.877 142.558 374.054 140.962 374.32C140.608 373.965 140.297 373.478 140.031 372.857C139.854 372.236 139.765 371.66 139.765 371.128C140.652 370.773 142.47 370.33 145.218 369.798C147.967 369.177 150.982 368.645 154.262 368.202C156.39 361.463 158.829 355.434 161.577 350.114C164.326 344.705 167.296 340.094 170.488 336.282C173.68 332.469 177.05 329.543 180.596 327.504C184.143 325.465 187.734 324.445 191.369 324.445C192.433 324.445 193.453 324.534 194.428 324.711C195.404 324.799 196.157 324.844 196.689 324.844C197.487 324.223 198.551 323.691 199.881 323.248C201.211 322.716 202.364 322.45 203.339 322.45C204.403 322.45 205.778 323.026 207.462 324.179C206.753 325.42 205.999 327.105 205.201 329.233C204.403 331.361 203.738 333.445 203.206 335.484C200.99 342.045 198.64 346.301 196.157 348.252C195.182 348.252 194.65 346.966 194.561 344.395C194.473 342.533 194.207 340.715 193.763 338.942C193.409 338.144 193.143 337.434 192.965 336.814C192.877 336.193 192.832 335.395 192.832 334.42C192.832 333.888 192.877 333.267 192.965 332.558C193.054 331.76 193.231 330.474 193.497 328.701C191.99 328.701 190.305 329.632 188.443 331.494C186.67 333.356 184.764 336.016 182.724 339.474C180.774 342.843 178.779 346.877 176.739 351.577C174.7 356.276 172.749 361.463 170.887 367.138L182.059 366.739C182.503 367.182 182.857 368.202 183.123 369.798C183.478 371.305 183.7 372.901 183.788 374.586L169.158 373.788C165.789 383.807 162.641 393.383 159.715 402.516C156.789 411.649 154.174 420.072 151.868 427.786C149.563 435.5 147.568 442.372 145.883 448.401C144.287 454.519 143.135 459.44 142.425 463.164ZM201.064 429.382C196.01 428.85 191.975 426.633 188.961 422.732C185.946 418.831 184.439 413.865 184.439 407.836C184.439 404.289 184.971 400.61 186.035 396.797C187.099 392.984 188.606 389.305 190.557 385.758C192.507 382.123 194.813 378.709 197.473 375.517C200.133 372.325 203.014 369.576 206.118 367.271C210.994 363.636 215.561 361.818 219.817 361.818C222.654 363.325 225.447 366.473 228.196 371.261C228.639 371.261 229.038 371.261 229.393 371.261C229.747 371.172 230.146 371.128 230.59 371.128C235.289 371.128 237.639 375.295 237.639 383.63C237.639 389.216 236.708 394.536 234.846 399.59C233.072 404.555 230.545 409.077 227.265 413.156C224.073 417.235 220.216 420.693 215.694 423.53C211.26 426.279 206.384 428.229 201.064 429.382ZM207.847 387.487C206.339 389.526 204.921 391.743 203.591 394.137C202.261 396.531 201.108 398.969 200.133 401.452C199.157 403.846 198.404 406.196 197.872 408.501C197.34 410.718 197.074 412.713 197.074 414.486C197.074 416.614 197.428 418.653 198.138 420.604C198.847 422.555 199.645 423.663 200.532 423.929C204.522 423.042 208.157 421.402 211.438 419.008C214.807 416.525 217.689 413.466 220.083 409.831C222.565 406.196 224.472 402.073 225.802 397.462C227.22 392.851 227.93 387.93 227.93 382.699C227.93 380.394 227.797 378.576 227.531 377.246C227.265 375.916 226.821 374.763 226.201 373.788C222.299 374.941 218.797 376.803 215.694 379.374C212.679 381.945 210.063 384.65 207.847 387.487ZM246.205 422.067C246.648 419.496 247.402 416.126 248.466 411.959C249.618 407.703 250.948 403.225 252.456 398.526C253.963 393.738 255.559 388.95 257.244 384.162C258.928 379.374 260.569 375.074 262.165 371.261C263.317 368.512 264.337 366.384 265.224 364.877C266.11 363.281 267.086 361.951 268.15 360.887C269.391 361.064 270.677 361.375 272.007 361.818C273.337 362.261 274.622 362.793 275.864 363.414C277.105 364.035 278.213 364.7 279.189 365.409C280.164 366.03 280.918 366.65 281.45 367.271C279.056 370.108 276.928 373.345 275.066 376.98C273.292 380.615 271.475 385.27 269.613 390.945C274.401 386.689 278.612 382.61 282.248 378.709C285.972 374.808 289.43 370.463 292.622 365.675C293.154 365.231 294.085 365.01 295.415 365.01C296.656 365.01 297.853 365.231 299.006 365.675C300.158 366.029 300.956 366.562 301.4 367.271C299.804 371.527 299.006 375.739 299.006 379.906C299.006 383.807 299.582 386.733 300.735 388.684C300.646 389.216 300.025 390.236 298.873 391.743C297.809 393.25 296.612 394.669 295.282 395.999C292.888 394.758 290.76 393.073 288.898 390.945C287.036 388.728 285.661 386.334 284.775 383.763C280.607 386.689 277.061 389.571 274.135 392.408C271.209 395.157 268.682 398.26 266.554 401.718C264.514 405.087 262.741 408.989 261.234 413.422C259.815 417.855 258.441 423.131 257.111 429.249C256.313 429.16 255.337 428.85 254.185 428.318C253.121 427.875 252.012 427.298 250.86 426.589C249.796 425.88 248.82 425.126 247.934 424.328C247.047 423.53 246.471 422.776 246.205 422.067ZM385.232 383.896C383.814 383.985 382.085 384.916 380.045 386.689C378.006 388.374 375.789 390.59 373.395 393.339C371.09 395.999 368.652 398.969 366.08 402.25C363.598 405.531 361.159 408.811 358.765 412.092C356.46 415.284 354.288 418.299 352.248 421.136C350.209 423.973 348.48 426.234 347.061 427.919C345.111 427.121 343.426 425.968 342.007 424.461C340.589 422.865 339.569 420.914 338.948 418.609C339.392 415.86 340.012 413.023 340.81 410.097C341.608 407.082 342.628 403.979 343.869 400.787C345.199 397.595 346.795 394.27 348.657 390.812C350.608 387.265 352.958 383.541 355.706 379.64C354.376 379.729 352.559 380.704 350.253 382.566C347.948 384.339 345.465 386.689 342.805 389.615C340.145 392.452 337.397 395.689 334.559 399.324C331.722 402.871 329.062 406.373 326.579 409.831C323.299 414.442 320.55 418.476 318.333 421.934C316.205 425.392 314.654 427.431 313.678 428.052C311.373 426.367 309.777 424.55 308.89 422.599C308.004 420.648 307.339 418.476 306.895 416.082C306.984 413.954 307.294 411.294 307.826 408.102C308.447 404.91 309.289 401.629 310.353 398.26C312.393 391.787 315.008 385.359 318.2 378.975C321.481 372.591 324.629 366.739 327.643 361.419C330.126 361.951 332.343 362.793 334.293 363.946C336.333 365.098 338.461 366.783 340.677 369C339.791 371.749 338.416 374.675 336.554 377.778C334.692 380.793 332.742 383.985 330.702 387.354C328.663 390.723 326.801 394.181 325.116 397.728C323.432 401.275 322.323 404.866 321.791 408.501C324.274 404.954 327.2 400.876 330.569 396.265C334.027 391.654 337.53 387.31 341.076 383.231C344.712 379.152 348.303 375.694 351.849 372.857C355.396 370.02 358.588 368.601 361.425 368.601C362.489 368.601 363.642 368.778 364.883 369.133C366.125 369.488 367.277 369.931 368.341 370.463C369.405 370.995 370.292 371.527 371.001 372.059C371.711 372.502 372.11 372.857 372.198 373.123C371.755 374.896 370.691 377.335 369.006 380.438C367.41 383.453 365.681 386.645 363.819 390.014C361.957 393.383 360.228 396.664 358.632 399.856C357.036 402.959 356.105 405.442 355.839 407.304C360.184 401.363 364.263 395.999 368.075 391.211C371.888 386.334 375.479 382.167 378.848 378.709C382.218 375.251 385.321 372.591 388.158 370.729C391.084 368.867 393.833 367.936 396.404 367.936C398.178 367.936 399.818 368.424 401.325 369.399C402.921 370.286 404.03 371.616 404.65 373.389C403.852 376.049 402.522 379.241 400.66 382.965C398.887 386.689 397.069 390.635 395.207 394.802C393.345 398.881 391.661 402.915 390.153 406.905C388.735 410.895 388.025 414.486 388.025 417.678C388.025 419.54 388.291 420.781 388.823 421.402C389.355 421.934 390.109 422.2 391.084 422.2C392.148 422.2 393.124 422.023 394.01 421.668C394.986 421.225 395.695 421.003 396.138 421.003C396.67 421.358 396.981 421.801 397.069 422.333C397.158 422.865 397.202 423.353 397.202 423.796C395.429 425.215 393.611 426.367 391.749 427.254C389.887 428.229 387.804 428.717 385.498 428.717C383.37 428.717 381.597 428.362 380.178 427.653C378.848 426.944 377.74 425.968 376.853 424.727C375.967 423.486 375.346 422.067 374.991 420.471C374.637 418.875 374.459 417.146 374.459 415.284C374.459 412.269 374.858 409.299 375.656 406.373C376.454 403.358 377.385 400.521 378.449 397.861C379.602 395.112 380.799 392.585 382.04 390.28C383.282 387.886 384.346 385.758 385.232 383.896ZM461.262 370.995C462.148 370.995 463.168 371.172 464.321 371.527C465.562 371.793 466.67 372.192 467.646 372.724C468.621 373.167 469.419 373.655 470.04 374.187C470.749 374.719 471.104 375.207 471.104 375.65C469.33 379.374 467.69 383.142 466.183 386.955C464.675 390.679 463.39 394.27 462.326 397.728C461.262 401.186 460.419 404.422 459.799 407.437C459.267 410.452 459.001 413.067 459.001 415.284C459.001 417.767 459.267 419.85 459.799 421.535C460.331 423.131 461.217 424.284 462.459 424.993C461.395 425.702 460.02 426.279 458.336 426.722C456.651 427.165 455.144 427.387 453.814 427.387C449.026 427.387 446.632 424.106 446.632 417.545C446.632 412.491 448.316 405.575 451.686 396.797C449.912 400.876 447.873 404.733 445.568 408.368C443.262 411.915 440.913 415.062 438.519 417.811C436.125 420.56 433.686 422.821 431.204 424.594C428.81 426.279 426.593 427.298 424.554 427.653C421.273 427.476 418.613 425.924 416.574 422.998C414.534 419.983 413.515 416.171 413.515 411.56C413.515 406.595 414.579 401.363 416.707 395.866C418.835 390.369 421.539 385.27 424.82 380.571C428.189 375.872 431.824 371.97 435.726 368.867C439.627 365.675 443.395 363.99 447.031 363.813C447.917 364.079 448.893 364.611 449.957 365.409C451.109 366.207 452.173 367.138 453.149 368.202C454.213 369.266 455.099 370.374 455.809 371.527C456.518 372.591 456.917 373.522 457.006 374.32C453.459 374.852 449.779 376.581 445.967 379.507C442.243 382.433 438.829 385.98 435.726 390.147C432.711 394.226 430.228 398.615 428.278 403.314C426.327 408.013 425.352 412.402 425.352 416.481C425.352 418.166 425.972 419.23 427.214 419.673C429.785 419.141 432.755 416.969 436.125 413.156C439.494 409.255 443.573 403.27 448.361 395.201C449.247 393.605 450.223 391.832 451.287 389.881C452.439 387.93 453.592 385.891 454.745 383.763C455.897 381.635 457.006 379.507 458.07 377.379C459.222 375.162 460.286 373.034 461.262 370.995ZM529.055 371.793C528.967 373.478 528.656 375.251 528.124 377.113C527.681 378.886 527.105 380.527 526.395 382.034C525.686 383.453 524.932 384.65 524.134 385.625C523.336 386.6 522.583 387.088 521.873 387.088C520.898 386.999 520.322 386.334 520.144 385.093C520.144 384.827 520.233 384.428 520.41 383.896C520.676 383.275 520.942 382.61 521.208 381.901C521.474 381.192 521.696 380.482 521.873 379.773C522.139 379.064 522.272 378.443 522.272 377.911C522.272 376.67 521.962 375.65 521.341 374.852C520.809 373.965 520.056 373.522 519.08 373.522C515.534 373.522 512.829 375.739 510.967 380.172C509.105 384.605 508.174 391.122 508.174 399.723C508.174 400.61 508.219 401.142 508.307 401.319C510.169 401.23 511.81 401.186 513.228 401.186C514.736 401.097 516.199 401.053 517.617 401.053C517.706 401.23 517.75 401.585 517.75 402.117C517.75 402.915 517.573 403.491 517.218 403.846C515.179 404.289 513.539 404.688 512.297 405.043C511.145 405.309 510.258 405.575 509.637 405.841C509.017 406.107 508.618 406.417 508.44 406.772C508.352 407.038 508.307 407.437 508.307 407.969C508.307 408.678 508.307 409.388 508.307 410.097C508.396 410.806 508.44 411.693 508.44 412.757C508.44 420.205 506.401 426.19 502.322 430.712C498.332 435.234 492.746 437.85 485.564 438.559C484.323 438.47 483.037 438.116 481.707 437.495C480.377 436.874 479.092 436.076 477.85 435.101C476.698 434.126 475.678 433.017 474.791 431.776C473.905 430.623 473.284 429.426 472.929 428.185C472.929 424.816 473.639 421.624 475.057 418.609C476.476 415.506 478.382 412.801 480.776 410.496C483.259 408.102 486.141 406.196 489.421 404.777C492.791 403.27 496.426 402.383 500.327 402.117C500.327 399.9 500.106 397.728 499.662 395.6C499.219 393.472 498.731 391.433 498.199 389.482C497.756 387.443 497.313 385.492 496.869 383.63C496.426 381.679 496.204 379.773 496.204 377.911C496.204 375.517 496.692 373.167 497.667 370.862C498.643 368.468 499.928 366.296 501.524 364.345C503.12 362.306 504.982 360.576 507.11 359.158C509.238 357.739 511.455 356.764 513.76 356.232C514.736 356.498 516.021 357.296 517.617 358.626C519.302 359.867 520.942 361.286 522.538 362.882C524.134 364.478 525.553 366.118 526.794 367.803C528.036 369.399 528.789 370.729 529.055 371.793ZM485.165 432.441C487.293 431.554 489.288 430.269 491.15 428.584C493.101 426.899 494.786 424.993 496.204 422.865C497.623 420.737 498.731 418.476 499.529 416.082C500.416 413.688 500.859 411.338 500.859 409.033C499.086 409.299 497.135 410.141 495.007 411.56C492.879 412.89 490.884 414.53 489.022 416.481C487.16 418.343 485.609 420.294 484.367 422.333C483.126 424.372 482.505 426.146 482.505 427.653C482.505 429.604 483.392 431.2 485.165 432.441ZM534.602 415.816C534.602 415.018 534.646 414.043 534.735 412.89C534.912 411.649 535.178 410.053 535.533 408.102C535.887 406.063 536.331 403.624 536.863 400.787C537.483 397.95 538.237 394.536 539.124 390.546C539.301 389.659 539.7 388.241 540.321 386.29C540.941 384.339 541.739 382.3 542.715 380.172C543.779 377.955 545.02 375.827 546.439 373.788C547.946 371.749 549.719 370.241 551.759 369.266C553.266 369.621 555.261 370.552 557.744 372.059C560.226 373.478 562.354 375.473 564.128 378.044C562.088 380.349 560.359 382.655 558.941 384.96C557.611 387.265 556.369 389.659 555.217 392.142C554.153 394.625 553.133 397.196 552.158 399.856C551.271 402.516 550.251 405.309 549.099 408.235C548.123 410.718 547.237 413.289 546.439 415.949C545.641 418.52 545.197 420.781 545.109 422.732C545.109 424.328 545.064 425.436 544.976 426.057C544.976 426.766 544.754 427.121 544.311 427.121C543.956 427.121 543.247 426.899 542.183 426.456C541.119 426.013 540.01 425.348 538.858 424.461C537.794 423.486 536.818 422.289 535.932 420.87C535.045 419.451 534.602 417.767 534.602 415.816ZM560.005 358.094C560.005 357.562 560.138 356.764 560.404 355.7C559.96 355.256 559.561 354.591 559.207 353.705C558.941 352.818 558.808 352.02 558.808 351.311C558.808 350.513 558.896 349.449 559.074 348.119C559.34 346.7 559.65 345.193 560.005 343.597C560.359 342.001 560.803 340.361 561.335 338.676C561.867 336.902 562.399 335.306 562.931 333.888C563.995 333.888 565.28 334.198 566.788 334.819C568.384 335.351 569.98 336.105 571.576 337.08C573.172 337.966 574.635 338.986 575.965 340.139C577.295 341.203 578.314 342.223 579.024 343.198C578.048 344.173 576.763 345.547 575.167 347.321C573.571 349.006 572.019 350.823 570.512 352.774C569.004 354.636 567.63 356.409 566.389 358.094C565.147 359.778 564.349 360.976 563.995 361.685C562.931 361.508 562 361.064 561.202 360.355C560.404 359.557 560.005 358.803 560.005 358.094ZM699.337 353.04C699.337 357.916 698.096 362.572 695.613 367.005C693.219 371.438 689.938 375.34 685.771 378.709C681.692 381.99 676.86 384.605 671.274 386.556C665.777 388.507 659.925 389.482 653.718 389.482C651.501 389.482 649.728 389.216 648.398 388.684C647.157 388.063 645.738 386.911 644.142 385.226C639.709 394.891 636.073 403.802 633.236 411.959C630.487 420.028 628.315 427.875 626.719 435.5C623.35 434.702 620.601 433.283 618.473 431.244C616.345 429.293 614.394 426.811 612.621 423.796C613.508 422.111 614.572 419.895 615.813 417.146C617.054 414.397 618.562 411.028 620.335 407.038C622.108 402.959 624.148 398.127 626.453 392.541C628.847 386.866 631.64 380.261 634.832 372.724C636.251 369.266 637.492 366.251 638.556 363.68C639.62 361.108 640.551 358.715 641.349 356.498C642.147 354.193 642.856 351.932 643.477 349.715C644.186 347.498 644.896 345.06 645.605 342.4C641.438 343.73 637.581 345.281 634.034 347.055C630.576 348.828 627.694 350.69 625.389 352.641C624.591 352.109 623.749 351.311 622.862 350.247C622.064 349.183 621.31 348.03 620.601 346.789C619.892 345.459 619.271 344.129 618.739 342.799C618.207 341.469 617.897 340.272 617.808 339.208C620.379 337.434 623.571 335.794 627.384 334.287C631.197 332.78 635.275 331.494 639.62 330.43C643.965 329.277 648.442 328.39 653.053 327.77C657.752 327.149 662.23 326.839 666.486 326.839C671.54 326.839 676.106 327.504 680.185 328.834C684.264 330.075 687.722 331.848 690.559 334.154C693.396 336.459 695.569 339.208 697.076 342.4C698.583 345.592 699.337 349.139 699.337 353.04ZM675.663 337.08C672.294 337.08 668.836 337.346 665.289 337.878L666.885 340.272C665.998 341.424 664.89 343.153 663.56 345.459C662.23 347.764 660.767 350.557 659.171 353.838C657.575 357.03 655.802 360.621 653.851 364.611C651.989 368.601 649.994 372.813 647.866 377.246C654.782 377.246 661.077 376.625 666.752 375.384C672.427 374.054 677.259 372.281 681.249 370.064C685.328 367.759 688.475 365.099 690.692 362.084C692.997 359.069 694.15 355.833 694.15 352.375C694.15 347.764 692.598 344.085 689.495 341.336C686.392 338.498 681.781 337.08 675.663 337.08ZM744.291 369.665C743.936 375.162 742.961 379.906 741.365 383.896C739.769 387.797 737.464 391.255 734.449 394.27C731.523 397.196 727.932 399.856 723.676 402.25C719.42 404.644 714.455 406.949 708.78 409.166C708.78 409.698 708.736 410.274 708.647 410.895C708.647 411.427 708.647 412.003 708.647 412.624C708.647 413.777 708.736 414.974 708.913 416.215C709.09 417.456 709.401 418.609 709.844 419.673C710.287 420.737 710.908 421.624 711.706 422.333C712.504 422.954 713.524 423.264 714.765 423.264C717.159 423.264 719.509 422.732 721.814 421.668C724.119 420.604 726.292 419.318 728.331 417.811C730.459 416.215 732.41 414.53 734.183 412.757C736.045 410.895 737.685 409.21 739.104 407.703C739.991 408.501 740.744 409.255 741.365 409.964C737.375 415.284 732.986 419.717 728.198 423.264C723.499 426.722 719.021 428.939 714.765 429.914C708.647 429.205 703.859 426.988 700.401 423.264C697.032 419.451 695.347 414.885 695.347 409.565C695.347 405.93 695.835 402.25 696.81 398.526C697.874 394.713 699.293 391.078 701.066 387.62C702.928 384.073 705.056 380.748 707.45 377.645C709.933 374.542 712.548 371.837 715.297 369.532C718.134 367.227 721.016 365.409 723.942 364.079C726.957 362.749 729.927 362.084 732.853 362.084C736.932 362.616 740.744 365.143 744.291 369.665ZM735.114 374.054C732.72 374.409 730.237 375.384 727.666 376.98C725.095 378.576 722.656 380.704 720.351 383.364C718.134 386.024 716.095 389.127 714.233 392.674C712.371 396.221 710.908 400.033 709.844 404.112C716.937 400.565 722.834 396.221 727.533 391.078C732.232 385.847 734.759 380.172 735.114 374.054ZM752.576 422.067C753.02 419.496 753.773 416.126 754.837 411.959C755.99 407.703 757.32 403.225 758.827 398.526C760.335 393.738 761.931 388.95 763.615 384.162C765.3 379.374 766.94 375.074 768.536 371.261C769.689 368.512 770.709 366.384 771.595 364.877C772.482 363.281 773.457 361.951 774.521 360.887C775.763 361.064 777.048 361.375 778.378 361.818C779.708 362.261 780.994 362.793 782.235 363.414C783.477 364.035 784.585 364.7 785.56 365.409C786.536 366.03 787.289 366.65 787.821 367.271C785.427 370.108 783.299 373.345 781.437 376.98C779.664 380.615 777.846 385.27 775.984 390.945C780.772 386.689 784.984 382.61 788.619 378.709C792.343 374.808 795.801 370.463 798.993 365.675C799.525 365.231 800.456 365.01 801.786 365.01C803.028 365.01 804.225 365.231 805.377 365.675C806.53 366.029 807.328 366.562 807.771 367.271C806.175 371.527 805.377 375.739 805.377 379.906C805.377 383.807 805.954 386.733 807.106 388.684C807.018 389.216 806.397 390.236 805.244 391.743C804.18 393.25 802.983 394.669 801.653 395.999C799.259 394.758 797.131 393.073 795.269 390.945C793.407 388.728 792.033 386.334 791.146 383.763C786.979 386.689 783.432 389.571 780.506 392.408C777.58 395.157 775.053 398.26 772.925 401.718C770.886 405.087 769.113 408.989 767.605 413.422C766.187 417.855 764.812 423.131 763.482 429.249C762.684 429.16 761.709 428.85 760.556 428.318C759.492 427.875 758.384 427.298 757.231 426.589C756.167 425.88 755.192 425.126 754.305 424.328C753.419 423.53 752.842 422.776 752.576 422.067ZM814.996 412.225C814.996 409.033 815.794 404.6 817.39 398.925C819.075 393.25 821.247 387.044 823.907 380.305C826.567 373.566 829.582 366.606 832.951 359.424C836.32 352.242 839.69 345.548 843.059 339.341C846.517 333.134 849.798 327.77 852.901 323.248C856.093 318.726 858.797 315.667 861.014 314.071C862.255 314.16 863.585 314.691 865.004 315.667C866.511 316.642 867.886 317.839 869.127 319.258C870.368 320.588 871.388 322.006 872.186 323.514C873.073 325.021 873.516 326.396 873.516 327.637C869.526 330.829 865.447 334.952 861.28 340.006C857.201 344.971 853.3 350.469 849.576 356.498C845.852 362.439 842.394 368.778 839.202 375.517C836.099 382.167 833.483 388.728 831.355 395.201C834.192 390.324 837.163 385.891 840.266 381.901C843.369 377.911 846.473 374.497 849.576 371.66C852.679 368.823 855.694 366.65 858.62 365.143C861.635 363.547 864.472 362.705 867.132 362.616C871.033 365.453 872.984 369.221 872.984 373.921C872.984 376.758 872.408 379.64 871.255 382.566C870.102 385.403 868.551 388.063 866.6 390.546C864.738 392.94 862.566 395.024 860.083 396.797C857.689 398.482 855.162 399.59 852.502 400.122C853.389 403.225 854.497 406.373 855.827 409.565C857.246 412.757 858.886 415.86 860.748 418.875C862.699 421.89 864.871 424.683 867.265 427.254C869.748 429.825 872.541 431.998 875.644 433.771C875.201 434.658 874.536 435.544 873.649 436.431C872.762 437.318 871.698 438.071 870.457 438.692C869.216 439.401 867.841 439.933 866.334 440.288C864.915 440.731 863.497 440.953 862.078 440.953C859.684 440.953 857.423 439.756 855.295 437.362C853.256 434.968 851.394 431.51 849.709 426.988C848.379 423.353 847.093 419.008 845.852 413.954C844.611 408.9 843.502 403.624 842.527 398.127C843.768 397.329 845.32 396.176 847.182 394.669C849.044 393.073 850.995 391.255 853.034 389.216C860.837 381.679 864.738 375.162 864.738 369.665C864.738 368.956 864.25 368.601 863.275 368.601C861.502 368.689 859.418 369.532 857.024 371.128C854.63 372.724 852.059 374.941 849.31 377.778C846.65 380.615 843.901 383.94 841.064 387.753C838.315 391.566 835.655 395.689 833.084 400.122C832.02 401.895 831.045 403.935 830.158 406.24C829.271 408.545 828.473 410.939 827.764 413.422C827.143 415.816 826.656 418.21 826.301 420.604C825.946 422.998 825.769 425.215 825.769 427.254C825.769 428.495 825.902 429.515 826.168 430.313C823.419 430.047 821.735 429.338 821.114 428.185C820.405 427.121 819.784 426.234 819.252 425.525C818.809 424.904 818.321 424.372 817.789 423.929C816.991 423.308 816.326 421.978 815.794 419.939C815.262 417.9 814.996 415.328 814.996 412.225ZM931.396 370.995C932.283 370.995 933.302 371.172 934.455 371.527C935.696 371.793 936.805 372.192 937.78 372.724C938.755 373.167 939.553 373.655 940.174 374.187C940.883 374.719 941.238 375.207 941.238 375.65C939.465 379.374 937.824 383.142 936.317 386.955C934.81 390.679 933.524 394.27 932.46 397.728C931.396 401.186 930.554 404.422 929.933 407.437C929.401 410.452 929.135 413.067 929.135 415.284C929.135 417.767 929.401 419.85 929.933 421.535C930.465 423.131 931.352 424.284 932.593 424.993C931.529 425.702 930.155 426.279 928.47 426.722C926.785 427.165 925.278 427.387 923.948 427.387C919.16 427.387 916.766 424.106 916.766 417.545C916.766 412.491 918.451 405.575 921.82 396.797C920.047 400.876 918.007 404.733 915.702 408.368C913.397 411.915 911.047 415.062 908.653 417.811C906.259 420.56 903.821 422.821 901.338 424.594C898.944 426.279 896.727 427.298 894.688 427.653C891.407 427.476 888.747 425.924 886.708 422.998C884.669 419.983 883.649 416.171 883.649 411.56C883.649 406.595 884.713 401.363 886.841 395.866C888.969 390.369 891.673 385.27 894.954 380.571C898.323 375.872 901.959 371.97 905.86 368.867C909.761 365.675 913.53 363.99 917.165 363.813C918.052 364.079 919.027 364.611 920.091 365.409C921.244 366.207 922.308 367.138 923.283 368.202C924.347 369.266 925.234 370.374 925.943 371.527C926.652 372.591 927.051 373.522 927.14 374.32C923.593 374.852 919.914 376.581 916.101 379.507C912.377 382.433 908.963 385.98 905.86 390.147C902.845 394.226 900.363 398.615 898.412 403.314C896.461 408.013 895.486 412.402 895.486 416.481C895.486 418.166 896.107 419.23 897.348 419.673C899.919 419.141 902.89 416.969 906.259 413.156C909.628 409.255 913.707 403.27 918.495 395.201C919.382 393.605 920.357 391.832 921.421 389.881C922.574 387.93 923.726 385.891 924.879 383.763C926.032 381.635 927.14 379.507 928.204 377.379C929.357 375.162 930.421 373.034 931.396 370.995ZM950.113 422.067C950.556 419.496 951.31 416.126 952.374 411.959C953.526 407.703 954.856 403.225 956.364 398.526C957.871 393.738 959.467 388.95 961.152 384.162C962.836 379.374 964.477 375.074 966.073 371.261C967.225 368.512 968.245 366.384 969.132 364.877C970.018 363.281 970.994 361.951 972.058 360.887C973.299 361.064 974.585 361.375 975.915 361.818C977.245 362.261 978.53 362.793 979.772 363.414C981.013 364.035 982.121 364.7 983.097 365.409C984.072 366.03 984.826 366.65 985.358 367.271C982.964 370.108 980.836 373.345 978.974 376.98C977.2 380.615 975.383 385.27 973.521 390.945C978.309 386.689 982.52 382.61 986.156 378.709C989.88 374.808 993.338 370.463 996.53 365.675C997.062 365.231 997.993 365.01 999.323 365.01C1000.56 365.01 1001.76 365.231 1002.91 365.675C1004.07 366.029 1004.86 366.562 1005.31 367.271C1003.71 371.527 1002.91 375.739 1002.91 379.906C1002.91 383.807 1003.49 386.733 1004.64 388.684C1004.55 389.216 1003.93 390.236 1002.78 391.743C1001.72 393.25 1000.52 394.669 999.19 395.999C996.796 394.758 994.668 393.073 992.806 390.945C990.944 388.728 989.569 386.334 988.683 383.763C984.515 386.689 980.969 389.571 978.043 392.408C975.117 395.157 972.59 398.26 970.462 401.718C968.422 405.087 966.649 408.989 965.142 413.422C963.723 417.855 962.349 423.131 961.019 429.249C960.221 429.16 959.245 428.85 958.093 428.318C957.029 427.875 955.92 427.298 954.768 426.589C953.704 425.88 952.728 425.126 951.842 424.328C950.955 423.53 950.379 422.776 950.113 422.067ZM1058.15 370.995C1059.04 370.995 1060.06 371.172 1061.21 371.527C1062.45 371.793 1063.56 372.192 1064.54 372.724C1065.51 373.167 1066.31 373.655 1066.93 374.187C1067.64 374.719 1067.99 375.207 1067.99 375.65C1066.22 379.374 1064.58 383.142 1063.07 386.955C1061.56 390.679 1060.28 394.27 1059.22 397.728C1058.15 401.186 1057.31 404.422 1056.69 407.437C1056.16 410.452 1055.89 413.067 1055.89 415.284C1055.89 417.767 1056.16 419.85 1056.69 421.535C1057.22 423.131 1058.11 424.284 1059.35 424.993C1058.28 425.702 1056.91 426.279 1055.23 426.722C1053.54 427.165 1052.03 427.387 1050.7 427.387C1045.92 427.387 1043.52 424.106 1043.52 417.545C1043.52 412.491 1045.21 405.575 1048.58 396.797C1046.8 400.876 1044.76 404.733 1042.46 408.368C1040.15 411.915 1037.8 415.062 1035.41 417.811C1033.01 420.56 1030.58 422.821 1028.09 424.594C1025.7 426.279 1023.48 427.298 1021.44 427.653C1018.16 427.476 1015.5 425.924 1013.46 422.998C1011.42 419.983 1010.4 416.171 1010.4 411.56C1010.4 406.595 1011.47 401.363 1013.6 395.866C1015.72 390.369 1018.43 385.27 1021.71 380.571C1025.08 375.872 1028.71 371.97 1032.62 368.867C1036.52 365.675 1040.28 363.99 1043.92 363.813C1044.81 364.079 1045.78 364.611 1046.85 365.409C1048 366.207 1049.06 367.138 1050.04 368.202C1051.1 369.266 1051.99 370.374 1052.7 371.527C1053.41 372.591 1053.81 373.522 1053.9 374.32C1050.35 374.852 1046.67 376.581 1042.86 379.507C1039.13 382.433 1035.72 385.98 1032.62 390.147C1029.6 394.226 1027.12 398.615 1025.17 403.314C1023.22 408.013 1022.24 412.402 1022.24 416.481C1022.24 418.166 1022.86 419.23 1024.1 419.673C1026.67 419.141 1029.64 416.969 1033.01 413.156C1036.38 409.255 1040.46 403.27 1045.25 395.201C1046.14 393.605 1047.11 391.832 1048.18 389.881C1049.33 387.93 1050.48 385.891 1051.63 383.763C1052.79 381.635 1053.9 379.507 1054.96 377.379C1056.11 375.162 1057.18 373.034 1058.15 370.995ZM1209.24 351.444C1209.24 356.941 1207.73 361.862 1204.72 366.207C1201.7 370.463 1197.58 374.01 1192.35 376.847C1195.72 379.152 1198.38 381.99 1200.33 385.359C1202.37 388.64 1203.39 392.275 1203.39 396.265C1203.39 401.053 1201.93 405.797 1199 410.496C1196.16 415.107 1192.35 419.23 1187.56 422.865C1182.77 426.412 1177.32 429.293 1171.2 431.51C1165.08 433.727 1158.83 434.835 1152.45 434.835C1145.53 434.835 1139.46 433.505 1134.23 430.845C1129.09 428.274 1125.05 424.594 1122.13 419.806C1123.01 417.146 1124.16 413.865 1125.58 409.964C1127.09 405.974 1128.73 401.807 1130.5 397.462C1132.28 393.029 1134.05 388.64 1135.82 384.295C1137.69 379.95 1139.42 376.049 1141.01 372.591C1144.38 365.054 1147.4 358.803 1150.06 353.838C1152.72 348.872 1155.15 344.927 1157.37 342.001C1152.49 343.508 1148.06 345.237 1144.07 347.188C1140.08 349.05 1137.15 350.867 1135.29 352.641C1134.49 352.109 1133.65 351.311 1132.77 350.247C1131.97 349.183 1131.17 348.03 1130.37 346.789C1129.66 345.459 1129.04 344.129 1128.51 342.799C1128.07 341.469 1127.8 340.272 1127.71 339.208C1130.02 337.612 1132.99 336.105 1136.62 334.686C1140.35 333.179 1144.38 331.893 1148.73 330.829C1153.07 329.765 1157.5 328.922 1162.03 328.302C1166.64 327.681 1171.02 327.371 1175.19 327.371C1185.83 327.371 1194.17 329.499 1200.2 333.755C1206.23 338.011 1209.24 343.907 1209.24 351.444ZM1158.57 383.231C1156.88 382.433 1155.33 381.236 1153.91 379.64C1151.87 384.162 1149.92 388.595 1148.06 392.94C1146.29 397.285 1144.69 401.319 1143.27 405.043C1141.85 408.767 1140.7 412.003 1139.81 414.752C1138.93 417.501 1138.44 419.496 1138.35 420.737C1139.59 421.446 1141.06 421.978 1142.74 422.333C1144.51 422.688 1146.69 422.865 1149.26 422.865C1155.29 422.865 1161.05 422.023 1166.55 420.338C1172.04 418.653 1176.88 416.392 1181.04 413.555C1185.21 410.629 1188.54 407.304 1191.02 403.58C1193.5 399.856 1194.74 395.955 1194.74 391.876C1194.74 386.024 1192.22 381.812 1187.16 379.241C1180.25 382.078 1172.44 383.497 1163.75 383.497C1162.51 383.497 1161.54 383.497 1160.83 383.497C1160.21 383.497 1159.45 383.408 1158.57 383.231ZM1184.37 337.08C1182.51 337.08 1180.51 337.213 1178.38 337.479C1176.34 337.656 1174.17 337.966 1171.87 338.41C1172.22 338.764 1172.49 339.163 1172.67 339.607C1172.93 339.961 1173.15 340.36 1173.33 340.804C1172.53 341.868 1171.56 343.42 1170.4 345.459C1169.25 347.498 1167.97 349.892 1166.55 352.641C1165.13 355.301 1163.62 358.271 1162.03 361.552C1160.52 364.833 1158.97 368.202 1157.37 371.66C1158.88 371.305 1160.7 371.039 1162.82 370.862C1165.04 370.596 1167.21 370.463 1169.34 370.463C1170.49 370.463 1171.6 370.507 1172.67 370.596C1173.82 370.685 1174.93 370.818 1175.99 370.995C1180.25 370.286 1184.06 369.266 1187.43 367.936C1190.89 366.517 1193.86 364.921 1196.34 363.148C1198.82 361.286 1200.73 359.247 1202.06 357.03C1203.39 354.813 1204.05 352.463 1204.05 349.981C1204.05 345.725 1202.37 342.533 1199 340.405C1195.63 338.188 1190.75 337.08 1184.37 337.08ZM1263.87 370.995C1264.76 370.995 1265.78 371.172 1266.93 371.527C1268.17 371.793 1269.28 372.192 1270.25 372.724C1271.23 373.167 1272.03 373.655 1272.65 374.187C1273.36 374.719 1273.71 375.207 1273.71 375.65C1271.94 379.374 1270.3 383.142 1268.79 386.955C1267.28 390.679 1266 394.27 1264.93 397.728C1263.87 401.186 1263.03 404.422 1262.41 407.437C1261.87 410.452 1261.61 413.067 1261.61 415.284C1261.61 417.767 1261.87 419.85 1262.41 421.535C1262.94 423.131 1263.83 424.284 1265.07 424.993C1264 425.702 1262.63 426.279 1260.94 426.722C1259.26 427.165 1257.75 427.387 1256.42 427.387C1251.63 427.387 1249.24 424.106 1249.24 417.545C1249.24 412.491 1250.92 405.575 1254.29 396.797C1252.52 400.876 1250.48 404.733 1248.18 408.368C1245.87 411.915 1243.52 415.062 1241.13 417.811C1238.73 420.56 1236.29 422.821 1233.81 424.594C1231.42 426.279 1229.2 427.298 1227.16 427.653C1223.88 427.476 1221.22 425.924 1219.18 422.998C1217.14 419.983 1216.12 416.171 1216.12 411.56C1216.12 406.595 1217.19 401.363 1219.31 395.866C1221.44 390.369 1224.15 385.27 1227.43 380.571C1230.8 375.872 1234.43 371.97 1238.33 368.867C1242.24 365.675 1246 363.99 1249.64 363.813C1250.53 364.079 1251.5 364.611 1252.56 365.409C1253.72 366.207 1254.78 367.138 1255.76 368.202C1256.82 369.266 1257.71 370.374 1258.42 371.527C1259.13 372.591 1259.53 373.522 1259.61 374.32C1256.07 374.852 1252.39 376.581 1248.57 379.507C1244.85 382.433 1241.44 385.98 1238.33 390.147C1235.32 394.226 1232.84 398.615 1230.89 403.314C1228.94 408.013 1227.96 412.402 1227.96 416.481C1227.96 418.166 1228.58 419.23 1229.82 419.673C1232.39 419.141 1235.36 416.969 1238.73 413.156C1242.1 409.255 1246.18 403.27 1250.97 395.201C1251.86 393.605 1252.83 391.832 1253.89 389.881C1255.05 387.93 1256.2 385.891 1257.35 383.763C1258.51 381.635 1259.61 379.507 1260.68 377.379C1261.83 375.162 1262.89 373.034 1263.87 370.995ZM1307.32 360.222C1309.63 360.931 1311.8 362.527 1313.84 365.01C1315.88 367.404 1317.39 370.064 1318.36 372.99C1317.39 375.384 1315.88 378.266 1313.84 381.635C1311.8 385.004 1309.76 388.462 1307.72 392.009C1305.68 395.467 1303.82 398.792 1302.14 401.984C1300.54 405.087 1299.61 407.659 1299.34 409.698C1300.76 408.191 1302.31 406.462 1304 404.511C1305.77 402.472 1307.46 400.477 1309.05 398.526C1310.74 396.487 1312.29 394.669 1313.71 393.073C1315.13 391.388 1316.24 390.147 1317.03 389.349C1318.72 387.576 1320.71 385.536 1323.02 383.231C1325.32 380.837 1327.72 378.62 1330.2 376.581C1332.77 374.453 1335.34 372.68 1337.91 371.261C1340.49 369.754 1342.84 369 1344.96 369C1347.27 369 1349.18 369.798 1350.68 371.394C1352.28 372.901 1353.52 374.497 1354.41 376.182C1354.41 376.359 1354.05 376.625 1353.34 376.98C1352.72 377.246 1351.79 378.088 1350.55 379.507C1349.31 381.103 1347.89 383.32 1346.29 386.157C1344.79 388.906 1343.28 391.92 1341.77 395.201C1340.35 398.393 1339.16 401.674 1338.18 405.043C1337.21 408.412 1336.72 411.471 1336.72 414.22C1336.72 416.437 1336.98 417.855 1337.52 418.476C1338.14 419.097 1338.98 419.407 1340.04 419.407C1341.02 419.407 1342.04 419.185 1343.1 418.742C1344.17 418.299 1345.01 418.077 1345.63 418.077C1345.98 418.254 1346.25 418.653 1346.43 419.274C1346.69 419.806 1346.83 420.294 1346.83 420.737C1346.12 421.358 1345.27 421.978 1344.3 422.599C1343.32 423.22 1342.3 423.796 1341.24 424.328C1340.18 424.86 1339.11 425.303 1338.05 425.658C1337.07 426.013 1336.19 426.19 1335.39 426.19C1332.82 426.19 1330.69 425.791 1329 424.993C1327.41 424.284 1326.12 423.308 1325.15 422.067C1324.26 420.826 1323.64 419.363 1323.28 417.678C1322.93 415.905 1322.75 414.043 1322.75 412.092C1322.75 411.028 1322.84 409.831 1323.02 408.501C1323.2 407.171 1323.55 405.619 1324.08 403.846C1324.61 401.984 1325.37 399.812 1326.34 397.329C1327.32 394.758 1328.56 391.699 1330.07 388.152C1329.89 388.152 1328.69 388.773 1326.48 390.014C1324.26 391.255 1321.87 393.162 1319.29 395.733C1315.13 399.723 1311.36 403.669 1307.99 407.57C1304.71 411.471 1301.34 415.816 1297.88 420.604C1295.93 423.353 1294.2 425.658 1292.69 427.52C1291.28 429.471 1290.03 430.756 1288.97 431.377C1287.11 430.313 1285.73 428.806 1284.85 426.855C1283.96 424.993 1283.3 423.042 1282.85 421.003C1282.85 419.318 1283.07 417.19 1283.52 414.619C1284.05 412.048 1284.71 409.21 1285.51 406.107C1286.4 402.915 1287.46 399.59 1288.7 396.132C1289.95 392.674 1291.32 389.216 1292.83 385.758C1296.2 377.955 1299.26 371.837 1302 367.404C1304.84 362.97 1306.62 360.576 1307.32 360.222ZM1391.92 362.616C1393.69 362.616 1395.73 363.148 1398.04 364.212C1400.34 365.276 1402.38 366.65 1404.15 368.335C1403.71 364.788 1403.13 361.463 1402.42 358.36C1401.8 355.168 1400.83 351.887 1399.5 348.518C1398.26 345.149 1396.57 341.469 1394.44 337.479C1392.32 333.489 1389.66 328.922 1386.46 323.78C1386.73 322.982 1387.31 322.051 1388.19 320.987C1389.17 319.923 1390.23 318.947 1391.39 318.061C1392.63 317.085 1393.87 316.243 1395.11 315.534C1396.44 314.824 1397.68 314.381 1398.83 314.204C1401.32 316.953 1403.67 320.411 1405.88 324.578C1408.1 328.657 1410.05 333.09 1411.73 337.878C1413.42 342.577 1414.71 347.454 1415.59 352.508C1416.57 357.562 1417.05 362.394 1417.05 367.005C1417.05 371.616 1416.52 376.359 1415.46 381.236C1414.48 386.113 1413.06 390.901 1411.2 395.6C1409.43 400.211 1407.35 404.6 1404.95 408.767C1402.56 412.934 1399.94 416.658 1397.1 419.939C1394.36 423.22 1391.47 425.88 1388.46 427.919C1385.45 430.047 1382.43 431.377 1379.42 431.909C1373.3 431.2 1368.6 429.205 1365.32 425.924C1362.13 422.732 1360.53 418.299 1360.53 412.624C1360.53 409.609 1360.97 406.329 1361.86 402.782C1362.84 399.235 1364.08 395.733 1365.58 392.275C1367.18 388.728 1369 385.315 1371.04 382.034C1373.16 378.665 1375.38 375.65 1377.69 372.99C1380.08 370.33 1382.47 368.069 1384.87 366.207C1387.26 364.345 1389.61 363.148 1391.92 362.616ZM1378.35 426.589C1381.46 425.525 1384.56 423.175 1387.66 419.54C1390.77 415.905 1393.56 411.649 1396.04 406.772C1398.52 401.807 1400.52 396.531 1402.03 390.945C1403.62 385.27 1404.42 379.817 1404.42 374.586C1404.42 373.079 1404.42 372.148 1404.42 371.793C1404.42 371.438 1404.38 371.084 1404.29 370.729C1402.16 371.616 1399.9 373.123 1397.5 375.251C1395.11 377.379 1392.72 379.862 1390.32 382.699C1387.93 385.448 1385.67 388.462 1383.54 391.743C1381.41 395.024 1379.5 398.304 1377.82 401.585C1376.14 404.866 1374.81 408.013 1373.83 411.028C1372.85 414.043 1372.37 416.703 1372.37 419.008C1372.37 423.441 1374.36 425.968 1378.35 426.589ZM1425.91 415.816C1425.91 415.018 1425.96 414.043 1426.05 412.89C1426.23 411.649 1426.49 410.053 1426.85 408.102C1427.2 406.063 1427.64 403.624 1428.18 400.787C1428.8 397.95 1429.55 394.536 1430.44 390.546C1430.61 389.659 1431.01 388.241 1431.63 386.29C1432.25 384.339 1433.05 382.3 1434.03 380.172C1435.09 377.955 1436.33 375.827 1437.75 373.788C1439.26 371.749 1441.03 370.241 1443.07 369.266C1444.58 369.621 1446.57 370.552 1449.06 372.059C1451.54 373.478 1453.67 375.473 1455.44 378.044C1453.4 380.349 1451.67 382.655 1450.25 384.96C1448.92 387.265 1447.68 389.659 1446.53 392.142C1445.47 394.625 1444.45 397.196 1443.47 399.856C1442.58 402.516 1441.56 405.309 1440.41 408.235C1439.44 410.718 1438.55 413.289 1437.75 415.949C1436.95 418.52 1436.51 420.781 1436.42 422.732C1436.42 424.328 1436.38 425.436 1436.29 426.057C1436.29 426.766 1436.07 427.121 1435.62 427.121C1435.27 427.121 1434.56 426.899 1433.5 426.456C1432.43 426.013 1431.32 425.348 1430.17 424.461C1429.11 423.486 1428.13 422.289 1427.24 420.87C1426.36 419.451 1425.91 417.767 1425.91 415.816ZM1451.32 358.094C1451.32 357.562 1451.45 356.764 1451.72 355.7C1451.27 355.256 1450.87 354.591 1450.52 353.705C1450.25 352.818 1450.12 352.02 1450.12 351.311C1450.12 350.513 1450.21 349.449 1450.39 348.119C1450.65 346.7 1450.96 345.193 1451.32 343.597C1451.67 342.001 1452.12 340.361 1452.65 338.676C1453.18 336.902 1453.71 335.306 1454.24 333.888C1455.31 333.888 1456.59 334.198 1458.1 334.819C1459.7 335.351 1461.29 336.105 1462.89 337.08C1464.48 337.966 1465.95 338.986 1467.28 340.139C1468.61 341.203 1469.63 342.223 1470.34 343.198C1469.36 344.173 1468.08 345.547 1466.48 347.321C1464.88 349.006 1463.33 350.823 1461.82 352.774C1460.32 354.636 1458.94 356.409 1457.7 358.094C1456.46 359.778 1455.66 360.976 1455.31 361.685C1454.24 361.508 1453.31 361.064 1452.51 360.355C1451.72 359.557 1451.32 358.803 1451.32 358.094ZM1484.08 360.222C1486.38 360.931 1488.56 362.527 1490.6 365.01C1492.64 367.404 1494.14 370.064 1495.12 372.99C1494.14 375.384 1492.64 378.266 1490.6 381.635C1488.56 385.004 1486.52 388.462 1484.48 392.009C1482.44 395.467 1480.58 398.792 1478.89 401.984C1477.3 405.087 1476.37 407.659 1476.1 409.698C1477.52 408.191 1479.07 406.462 1480.75 404.511C1482.53 402.472 1484.21 400.477 1485.81 398.526C1487.49 396.487 1489.04 394.669 1490.46 393.073C1491.88 391.388 1492.99 390.147 1493.79 389.349C1495.47 387.576 1497.47 385.536 1499.77 383.231C1502.08 380.837 1504.47 378.62 1506.96 376.581C1509.53 374.453 1512.1 372.68 1514.67 371.261C1517.24 369.754 1519.59 369 1521.72 369C1524.02 369 1525.93 369.798 1527.44 371.394C1529.03 372.901 1530.27 374.497 1531.16 376.182C1531.16 376.359 1530.81 376.625 1530.1 376.98C1529.48 377.246 1528.55 378.088 1527.3 379.507C1526.06 381.103 1524.64 383.32 1523.05 386.157C1521.54 388.906 1520.03 391.92 1518.53 395.201C1517.11 398.393 1515.91 401.674 1514.94 405.043C1513.96 408.412 1513.47 411.471 1513.47 414.22C1513.47 416.437 1513.74 417.855 1514.27 418.476C1514.89 419.097 1515.73 419.407 1516.8 419.407C1517.77 419.407 1518.79 419.185 1519.86 418.742C1520.92 418.299 1521.76 418.077 1522.38 418.077C1522.74 418.254 1523 418.653 1523.18 419.274C1523.45 419.806 1523.58 420.294 1523.58 420.737C1522.87 421.358 1522.03 421.978 1521.05 422.599C1520.08 423.22 1519.06 423.796 1517.99 424.328C1516.93 424.86 1515.87 425.303 1514.8 425.658C1513.83 426.013 1512.94 426.19 1512.14 426.19C1509.57 426.19 1507.44 425.791 1505.76 424.993C1504.16 424.284 1502.88 423.308 1501.9 422.067C1501.01 420.826 1500.39 419.363 1500.04 417.678C1499.68 415.905 1499.51 414.043 1499.51 412.092C1499.51 411.028 1499.6 409.831 1499.77 408.501C1499.95 407.171 1500.31 405.619 1500.84 403.846C1501.37 401.984 1502.12 399.812 1503.1 397.329C1504.07 394.758 1505.32 391.699 1506.82 388.152C1506.65 388.152 1505.45 388.773 1503.23 390.014C1501.01 391.255 1498.62 393.162 1496.05 395.733C1491.88 399.723 1488.11 403.669 1484.74 407.57C1481.46 411.471 1478.09 415.816 1474.64 420.604C1472.69 423.353 1470.96 425.658 1469.45 427.52C1468.03 429.471 1466.79 430.756 1465.73 431.377C1463.86 430.313 1462.49 428.806 1461.6 426.855C1460.72 424.993 1460.05 423.042 1459.61 421.003C1459.61 419.318 1459.83 417.19 1460.27 414.619C1460.8 412.048 1461.47 409.21 1462.27 406.107C1463.15 402.915 1464.22 399.59 1465.46 396.132C1466.7 392.674 1468.08 389.216 1469.58 385.758C1472.95 377.955 1476.01 371.837 1478.76 367.404C1481.6 362.97 1483.37 360.576 1484.08 360.222ZM1512.81 464.361C1512.81 463.829 1512.99 463.341 1513.34 462.898C1513.7 462.455 1514.1 462.011 1514.54 461.568C1515.61 462.543 1516.54 463.297 1517.33 463.829C1518.04 464.361 1518.75 464.804 1519.46 465.159C1520.08 465.514 1520.75 465.735 1521.46 465.824C1522.17 465.913 1523.01 465.957 1523.98 465.957C1528.6 465.957 1532.98 464.716 1537.15 462.233C1541.32 459.839 1545.22 456.337 1548.86 451.726C1552.58 447.115 1555.95 441.485 1558.96 434.835C1561.98 428.185 1564.64 420.648 1566.94 412.225C1565.88 413.289 1564.55 414.486 1562.95 415.816C1561.45 417.057 1559.85 418.254 1558.17 419.407C1556.48 420.56 1554.8 421.624 1553.11 422.599C1551.52 423.574 1550.14 424.284 1548.99 424.727C1547.48 424.461 1546.06 423.84 1544.73 422.865C1543.49 421.801 1542.38 420.515 1541.41 419.008C1540.43 417.501 1539.68 415.816 1539.15 413.954C1538.61 412.003 1538.35 409.964 1538.35 407.836C1538.35 404.378 1538.97 400.831 1540.21 397.196C1541.54 393.561 1543.27 390.014 1545.4 386.556C1547.53 383.009 1550.01 379.684 1552.85 376.581C1555.77 373.478 1558.83 370.773 1562.02 368.468C1565.3 366.163 1568.58 364.345 1571.86 363.015C1575.23 361.596 1578.51 360.887 1581.71 360.887C1584.81 360.887 1587.12 361.552 1588.62 362.882C1590.22 364.123 1591.37 366.296 1592.08 369.399C1591.11 368.867 1589.86 368.601 1588.36 368.601C1586.23 368.601 1583.75 369.443 1580.91 371.128C1578.16 372.813 1575.32 375.029 1572.4 377.778C1569.56 380.438 1566.72 383.541 1563.88 387.088C1561.05 390.546 1558.52 394.093 1556.3 397.728C1554.18 401.363 1552.4 404.91 1550.98 408.368C1549.65 411.826 1548.99 414.929 1548.99 417.678C1548.99 418.299 1549.03 418.698 1549.12 418.875C1549.21 418.964 1549.34 419.008 1549.52 419.008C1550.32 419.008 1551.38 418.565 1552.71 417.678C1554.13 416.791 1555.68 415.683 1557.37 414.353C1559.14 412.934 1560.96 411.338 1562.82 409.565C1564.68 407.703 1566.46 405.841 1568.14 403.979C1571.95 399.723 1575.41 394.979 1578.51 389.748C1581.71 384.428 1584.23 379.285 1586.1 374.32C1588.49 374.497 1590.62 374.896 1592.48 375.517C1594.34 376.138 1595.63 376.803 1596.34 377.512C1593.32 384.428 1590.88 390.236 1589.02 394.935C1587.25 399.634 1585.7 403.802 1584.37 407.437C1581.97 413.821 1579.71 419.629 1577.58 424.86C1575.54 430.18 1573.42 435.057 1571.2 439.49C1569.07 444.012 1566.72 448.179 1564.15 451.992C1561.67 455.893 1558.83 459.617 1555.64 463.164C1554.13 464.849 1552.4 466.312 1550.45 467.553C1548.59 468.883 1546.64 469.991 1544.6 470.878C1542.65 471.765 1540.7 472.43 1538.75 472.873C1536.89 473.316 1535.16 473.538 1533.56 473.538C1531.43 473.538 1529.26 473.272 1527.04 472.74C1524.83 472.297 1522.79 471.632 1520.93 470.745C1518.98 469.947 1517.29 468.972 1515.87 467.819C1514.45 466.755 1513.43 465.602 1512.81 464.361Z" fill="#FFF241"/>
</g>
<defs>
<clipPath id="clip0_30_14">
<rect width="1657" height="473" fill="white"/>
</clipPath>
</defs>
</svg>
