<svg width="1175" height="452" viewBox="0 0 1175 452" fill="none" xmlns="http://www.w3.org/2000/svg">
<g clip-path="url(#clip0_3_45)">
<path d="M9.29932 92.1685L12.1606 67.8472H80.8325L83.6938 92.1685C80.5464 95.8882 75.2052 99.1787 67.6704 102.04V235.95C75.2052 239.002 80.5464 242.245 83.6938 245.679L80.8325 270H12.1606L9.29932 245.679C11.8745 242.34 17.2633 239.098 25.4658 235.95V102.04C17.3587 99.1787 11.9699 95.8882 9.29932 92.1685ZM149.791 159.553V236.666C157.039 239.336 162.38 242.913 165.814 247.396L162.953 270H105.583L102.579 247.396C106.203 242.913 111.592 239.336 118.745 236.666V101.182C110.733 98.3203 105.154 94.7437 102.006 90.4517L104.868 67.8472H165.242L223.613 181.585C225.806 185.686 227.905 190.503 229.908 196.035C232.006 201.471 234.104 207.575 236.203 214.347L238.206 221.357L241.496 220.213C238.73 202.854 237.347 188.595 237.347 177.436V101.468C230.098 98.7018 224.757 95.0298 221.324 90.4517L224.185 67.8472H281.555L284.559 90.4517C280.935 95.0298 275.546 98.7018 268.393 101.468V270H222.468L163.525 155.404C159.328 147.487 155.132 136.471 150.935 122.355L148.932 115.631L145.642 116.776C148.408 134.135 149.791 148.394 149.791 159.553ZM372.116 199.611H358.954V234.233C373.069 237.381 381.94 241.196 385.564 245.679L382.56 270H303.444L300.583 245.679C303.158 242.34 308.547 239.098 316.749 235.95V102.04C308.642 99.1787 303.253 95.8882 300.583 92.1685L303.444 67.8472H381.129C399.251 68.0379 414.273 70.2316 426.195 74.4282C438.212 78.5295 447.178 85.3013 453.091 94.7437C459.005 104.186 461.961 117.014 461.961 133.229C461.961 177.484 432.013 199.611 372.116 199.611ZM376.408 99.751H358.954V167.708H378.554C391.811 167.708 401.683 165.085 408.168 159.839C414.75 154.498 418.04 145.341 418.04 132.37C418.04 119.303 414.463 110.624 407.31 106.332C400.252 101.945 389.951 99.751 376.408 99.751ZM595.442 216.35L617.188 219.068V270H481.132L478.271 245.679C480.846 242.34 486.235 239.098 494.438 235.95V102.04C486.33 99.1787 480.942 95.8882 478.271 92.1685L481.132 67.8472H614.756V118.779L593.153 121.497C588.575 117.587 584.951 110.338 582.28 99.751H536.642V150.11H577.273C579.657 144.388 582.09 140.286 584.569 137.807L603.025 139.953V192.029L584.569 194.461C582.185 192.458 579.753 188.357 577.273 182.157H536.642V238.096H584.569C587.145 227.795 590.769 220.547 595.442 216.35ZM794.734 127.077C794.734 140.334 790.585 151.446 782.287 160.411C773.989 169.377 763.593 176.196 751.099 180.87C760.827 184.971 767.265 189.978 770.413 195.892L791.729 236.666C801.076 239.622 807.371 243.199 810.614 247.396L807.61 270H758.109L724.345 198.181C721.389 190.932 717.812 187.308 713.615 187.308H694.587V234.233C708.703 237.381 717.573 241.196 721.198 245.679L718.193 270H639.078L636.216 245.679C638.792 242.34 644.18 239.098 652.383 235.95V102.04C644.276 99.1787 638.887 95.8882 636.216 92.1685L639.078 67.8472H713.901C732.118 68.0379 747.188 69.9932 759.11 73.7129C771.033 77.3372 779.95 83.4414 785.864 92.0254C791.777 100.514 794.734 112.198 794.734 127.077ZM711.755 99.751H694.587V155.404H711.183C724.536 155.404 734.455 153.401 740.941 149.395C747.522 145.389 750.812 138.188 750.812 127.792C750.812 117.491 747.474 110.243 740.798 106.046C734.217 101.849 724.536 99.751 711.755 99.751ZM820.2 92.1685L823.061 67.8472H889.587C912.573 67.8472 929.359 69.2301 939.946 71.9961C950.342 74.8574 957.782 78.2433 962.265 82.1538C972.279 90.7378 977.287 103.948 977.287 121.783C977.287 135.041 970.133 147.631 955.827 159.553C974.044 168.709 983.152 185.782 983.152 210.771C983.152 230.323 976.714 244.868 963.838 254.406C951.058 263.848 931.982 269.046 906.612 270H823.061L820.2 245.679C822.775 242.34 828.164 239.098 836.366 235.95V102.04C828.259 99.1787 822.87 95.8882 820.2 92.1685ZM893.736 99.751H878.571V150.396H902.463C912.478 150.396 920.108 147.869 925.354 142.814C930.695 137.759 933.365 131.559 933.365 124.215C933.365 116.871 931.505 111.339 927.786 107.62C924.066 103.9 919.726 101.659 914.767 100.896C909.902 100.132 902.892 99.751 893.736 99.751ZM904.609 182.443H878.571V238.096H898.743C912.001 238.096 922.015 236.141 928.787 232.23C935.654 228.225 939.088 221.167 939.088 211.057C939.088 200.851 936.417 193.555 931.076 189.167C925.735 184.685 916.913 182.443 904.609 182.443ZM1003.61 234.52L1059.84 66.4165H1100.04L1158.41 235.378C1166.61 238.335 1172.33 241.768 1175.58 245.679L1172.72 270H1104.19L1101.18 245.679C1103.57 242.627 1108.29 239.718 1115.35 236.952L1107.33 212.344H1048.82L1041.38 235.95C1048.25 238.716 1053.35 241.959 1056.69 245.679L1053.68 270H986.872L984.011 245.679C987.635 241.196 994.168 237.476 1003.61 234.52ZM1080.15 112.341L1079.87 107.333H1075.72C1075.72 119.16 1073.28 133.038 1068.42 148.966L1056.97 185.305H1098.89L1087.73 149.538C1083.25 135.804 1080.72 123.405 1080.15 112.341Z" fill="#84C201"/>
<path d="M12.838 389.067C12.838 386.715 13.1973 383.677 13.916 379.953C14.7 376.163 15.68 372.113 16.856 367.801C18.0973 363.423 19.502 358.981 21.07 354.473C22.638 349.899 24.2387 345.62 25.872 341.635C27.5053 337.649 29.106 334.154 30.674 331.149C32.242 328.143 33.6467 325.987 34.888 324.681C35.5413 324.746 36.3907 325.007 37.436 325.465C38.5467 325.857 39.6573 326.347 40.768 326.935C41.8787 327.523 42.8913 328.176 43.806 328.895C44.7207 329.548 45.3087 330.169 45.57 330.757C43.6753 332.455 41.7807 335.036 39.886 338.499C38.0567 341.896 36.26 345.783 34.496 350.161C32.7973 354.538 31.1967 359.177 29.694 364.077C28.1913 368.911 26.8847 373.615 25.774 378.189C24.6633 382.762 23.7813 387.009 23.128 390.929C22.54 394.849 22.246 398.017 22.246 400.435C22.246 401.545 22.344 402.231 22.54 402.493C21.1027 402.427 20.0573 402.166 19.404 401.709C18.7507 401.317 18.228 400.859 17.836 400.337C17.5093 399.879 17.1827 399.389 16.856 398.867C16.5947 398.409 16.17 398.05 15.582 397.789C15.1247 397.593 14.7327 397.135 14.406 396.417C14.0793 395.698 13.7853 394.914 13.524 394.065C13.328 393.15 13.1647 392.235 13.034 391.321C12.9033 390.406 12.838 389.655 12.838 389.067ZM58.5872 347.123C60.2858 347.645 61.8865 348.821 63.3892 350.651C64.8918 352.415 66.0025 354.375 66.7212 356.531C66.0025 358.295 64.8918 360.418 63.3892 362.901C61.8865 365.383 60.3838 367.931 58.8812 370.545C57.3785 373.093 56.0065 375.543 54.7652 377.895C53.5892 380.181 52.9032 382.076 52.7072 383.579C53.7525 382.468 54.8958 381.194 56.1372 379.757C57.4438 378.254 58.6852 376.784 59.8612 375.347C61.1025 373.844 62.2458 372.505 63.2912 371.329C64.3365 370.087 65.1532 369.173 65.7412 368.585C66.9825 367.278 68.4525 365.775 70.1512 364.077C71.8498 362.313 73.6138 360.679 75.4432 359.177C77.3378 357.609 79.2325 356.302 81.1272 355.257C83.0218 354.146 84.7532 353.591 86.3212 353.591C88.0198 353.591 89.4245 354.179 90.5352 355.355C91.7112 356.465 92.6258 357.641 93.2792 358.883C93.2792 359.013 93.0178 359.209 92.4952 359.471C92.0378 359.667 91.3518 360.287 90.4372 361.333C89.5225 362.509 88.4772 364.142 87.3012 366.233C86.1905 368.258 85.0798 370.479 83.9692 372.897C82.9238 375.249 82.0418 377.666 81.3232 380.149C80.6045 382.631 80.2452 384.885 80.2452 386.911C80.2452 388.544 80.4412 389.589 80.8332 390.047C81.2905 390.504 81.9112 390.733 82.6952 390.733C83.4138 390.733 84.1652 390.569 84.9492 390.243C85.7332 389.916 86.3538 389.753 86.8112 389.753C87.0725 389.883 87.2685 390.177 87.3992 390.635C87.5952 391.027 87.6932 391.386 87.6932 391.713C87.1705 392.17 86.5498 392.627 85.8312 393.085C85.1125 393.542 84.3612 393.967 83.5772 394.359C82.7932 394.751 82.0092 395.077 81.2252 395.339C80.5065 395.6 79.8532 395.731 79.2652 395.731C77.3705 395.731 75.8025 395.437 74.5612 394.849C73.3852 394.326 72.4378 393.607 71.7192 392.693C71.0658 391.778 70.6085 390.7 70.3472 389.459C70.0858 388.152 69.9552 386.78 69.9552 385.343C69.9552 384.559 70.0205 383.677 70.1512 382.697C70.2818 381.717 70.5432 380.573 70.9352 379.267C71.3272 377.895 71.8825 376.294 72.6012 374.465C73.3198 372.57 74.2345 370.316 75.3452 367.703C75.2145 367.703 74.3325 368.16 72.6992 369.075C71.0658 369.989 69.3018 371.394 67.4072 373.289C64.3365 376.229 61.5598 379.136 59.0772 382.011C56.6598 384.885 54.1772 388.087 51.6292 391.615C50.1918 393.64 48.9178 395.339 47.8072 396.711C46.7618 398.148 45.8472 399.095 45.0632 399.553C43.6912 398.769 42.6785 397.658 42.0252 396.221C41.3718 394.849 40.8818 393.411 40.5552 391.909C40.5552 390.667 40.7185 389.099 41.0452 387.205C41.4372 385.31 41.9272 383.219 42.5152 380.933C43.1685 378.581 43.9525 376.131 44.8672 373.583C45.7818 371.035 46.7945 368.487 47.9052 365.939C50.3878 360.189 52.6418 355.681 54.6672 352.415C56.7578 349.148 58.0645 347.384 58.5872 347.123ZM104.945 422.975C103.312 422.321 102.332 421.08 102.005 419.251C101.744 417.487 100.633 416.049 98.673 414.939C99.1956 411.607 99.7836 408.242 100.437 404.845C101.09 401.447 101.907 397.593 102.887 393.281C103.932 388.903 105.206 383.84 106.709 378.091C108.277 372.276 110.237 365.253 112.589 357.021C110.433 357.021 108.734 357.053 107.493 357.119C106.252 357.184 105.043 357.315 103.867 357.511C103.606 357.249 103.377 356.89 103.181 356.433C103.05 355.975 102.985 355.551 102.985 355.159C103.638 354.897 104.978 354.571 107.003 354.179C109.028 353.721 111.25 353.329 113.667 353.003C115.235 348.037 117.032 343.595 119.057 339.675C121.082 335.689 123.271 332.292 125.623 329.483C127.975 326.673 130.458 324.517 133.071 323.015C135.684 321.512 138.33 320.761 141.009 320.761C141.793 320.761 142.544 320.826 143.263 320.957C143.982 321.022 144.537 321.055 144.929 321.055C145.517 320.597 146.301 320.205 147.281 319.879C148.261 319.487 149.11 319.291 149.829 319.291C150.613 319.291 151.626 319.715 152.867 320.565C152.344 321.479 151.789 322.721 151.201 324.289C150.613 325.857 150.123 327.392 149.731 328.895C148.098 333.729 146.366 336.865 144.537 338.303C143.818 338.303 143.426 337.355 143.361 335.461C143.296 334.089 143.1 332.749 142.773 331.443C142.512 330.855 142.316 330.332 142.185 329.875C142.12 329.417 142.087 328.829 142.087 328.111C142.087 327.719 142.12 327.261 142.185 326.739C142.25 326.151 142.381 325.203 142.577 323.897C141.466 323.897 140.225 324.583 138.853 325.955C137.546 327.327 136.142 329.287 134.639 331.835C133.202 334.317 131.732 337.29 130.229 340.753C128.726 344.215 127.289 348.037 125.917 352.219L134.149 351.925C134.476 352.251 134.737 353.003 134.933 354.179C135.194 355.289 135.358 356.465 135.423 357.707L124.643 357.119C122.16 364.501 119.841 371.557 117.685 378.287C115.529 385.016 113.602 391.223 111.903 396.907C110.204 402.591 108.734 407.654 107.493 412.097C106.317 416.605 105.468 420.231 104.945 422.975ZM148.152 398.083C144.428 397.691 141.456 396.057 139.234 393.183C137.013 390.308 135.902 386.649 135.902 382.207C135.902 379.593 136.294 376.882 137.078 374.073C137.862 371.263 138.973 368.552 140.41 365.939C141.848 363.26 143.546 360.745 145.506 358.393C147.466 356.041 149.59 354.015 151.876 352.317C155.47 349.638 158.834 348.299 161.97 348.299C164.061 349.409 166.119 351.729 168.144 355.257C168.471 355.257 168.765 355.257 169.026 355.257C169.288 355.191 169.582 355.159 169.908 355.159C173.371 355.159 175.102 358.229 175.102 364.371C175.102 368.487 174.416 372.407 173.044 376.131C171.738 379.789 169.876 383.121 167.458 386.127C165.106 389.132 162.264 391.68 158.932 393.771C155.666 395.796 152.072 397.233 148.152 398.083ZM153.15 367.213C152.04 368.715 150.994 370.349 150.014 372.113C149.034 373.877 148.185 375.673 147.466 377.503C146.748 379.267 146.192 380.998 145.8 382.697C145.408 384.33 145.212 385.8 145.212 387.107C145.212 388.675 145.474 390.177 145.996 391.615C146.519 393.052 147.107 393.869 147.76 394.065C150.7 393.411 153.379 392.203 155.796 390.439C158.279 388.609 160.402 386.355 162.166 383.677C163.996 380.998 165.4 377.96 166.38 374.563C167.426 371.165 167.948 367.539 167.948 363.685C167.948 361.986 167.85 360.647 167.654 359.667C167.458 358.687 167.132 357.837 166.674 357.119C163.8 357.968 161.219 359.34 158.932 361.235C156.711 363.129 154.784 365.122 153.15 367.213ZM181.414 392.693C181.741 390.798 182.296 388.315 183.08 385.245C183.929 382.109 184.909 378.809 186.02 375.347C187.131 371.819 188.307 368.291 189.548 364.763C190.789 361.235 191.998 358.066 193.174 355.257C194.023 353.231 194.775 351.663 195.428 350.553C196.081 349.377 196.8 348.397 197.584 347.613C198.499 347.743 199.446 347.972 200.426 348.299C201.406 348.625 202.353 349.017 203.268 349.475C204.183 349.932 204.999 350.422 205.718 350.945C206.437 351.402 206.992 351.859 207.384 352.317C205.62 354.407 204.052 356.792 202.68 359.471C201.373 362.149 200.034 365.579 198.662 369.761C202.19 366.625 205.293 363.619 207.972 360.745C210.716 357.87 213.264 354.669 215.616 351.141C216.008 350.814 216.694 350.651 217.674 350.651C218.589 350.651 219.471 350.814 220.32 351.141C221.169 351.402 221.757 351.794 222.084 352.317C220.908 355.453 220.32 358.556 220.32 361.627C220.32 364.501 220.745 366.657 221.594 368.095C221.529 368.487 221.071 369.238 220.222 370.349C219.438 371.459 218.556 372.505 217.576 373.485C215.812 372.57 214.244 371.329 212.872 369.761C211.5 368.127 210.487 366.363 209.834 364.469C206.763 366.625 204.15 368.748 201.994 370.839C199.838 372.864 197.976 375.151 196.408 377.699C194.905 380.181 193.599 383.056 192.488 386.323C191.443 389.589 190.43 393.477 189.45 397.985C188.862 397.919 188.143 397.691 187.294 397.299C186.51 396.972 185.693 396.547 184.844 396.025C184.06 395.502 183.341 394.947 182.688 394.359C182.035 393.771 181.61 393.215 181.414 392.693ZM283.855 364.567C282.81 364.632 281.536 365.318 280.033 366.625C278.531 367.866 276.897 369.499 275.133 371.525C273.435 373.485 271.638 375.673 269.743 378.091C267.914 380.508 266.117 382.925 264.353 385.343C262.655 387.695 261.054 389.916 259.551 392.007C258.049 394.097 256.775 395.763 255.729 397.005C254.292 396.417 253.051 395.567 252.005 394.457C250.96 393.281 250.209 391.843 249.751 390.145C250.078 388.119 250.535 386.029 251.123 383.873C251.711 381.651 252.463 379.365 253.377 377.013C254.357 374.661 255.533 372.211 256.905 369.663C258.343 367.049 260.074 364.305 262.099 361.431C261.119 361.496 259.78 362.215 258.081 363.587C256.383 364.893 254.553 366.625 252.593 368.781C250.633 370.871 248.608 373.256 246.517 375.935C244.427 378.548 242.467 381.129 240.637 383.677C238.22 387.074 236.195 390.047 234.561 392.595C232.993 395.143 231.85 396.645 231.131 397.103C229.433 395.861 228.257 394.522 227.603 393.085C226.95 391.647 226.46 390.047 226.133 388.283C226.199 386.715 226.427 384.755 226.819 382.403C227.277 380.051 227.897 377.633 228.681 375.151C230.184 370.381 232.111 365.645 234.463 360.941C236.881 356.237 239.2 351.925 241.421 348.005C243.251 348.397 244.884 349.017 246.321 349.867C247.824 350.716 249.392 351.957 251.025 353.591C250.372 355.616 249.359 357.772 247.987 360.059C246.615 362.28 245.178 364.632 243.675 367.115C242.173 369.597 240.801 372.145 239.559 374.759C238.318 377.372 237.501 380.018 237.109 382.697C238.939 380.083 241.095 377.078 243.577 373.681C246.125 370.283 248.706 367.082 251.319 364.077C253.998 361.071 256.644 358.523 259.257 356.433C261.871 354.342 264.223 353.297 266.313 353.297C267.097 353.297 267.947 353.427 268.861 353.689C269.776 353.95 270.625 354.277 271.409 354.669C272.193 355.061 272.847 355.453 273.369 355.845C273.892 356.171 274.186 356.433 274.251 356.629C273.925 357.935 273.141 359.732 271.899 362.019C270.723 364.24 269.449 366.592 268.077 369.075C266.705 371.557 265.431 373.975 264.255 376.327C263.079 378.613 262.393 380.443 262.197 381.815C265.399 377.437 268.404 373.485 271.213 369.957C274.023 366.363 276.669 363.293 279.151 360.745C281.634 358.197 283.921 356.237 286.011 354.865C288.167 353.493 290.193 352.807 292.087 352.807C293.394 352.807 294.603 353.166 295.713 353.885C296.889 354.538 297.706 355.518 298.163 356.825C297.575 358.785 296.595 361.137 295.223 363.881C293.917 366.625 292.577 369.532 291.205 372.603C289.833 375.608 288.592 378.581 287.481 381.521C286.436 384.461 285.913 387.107 285.913 389.459C285.913 390.831 286.109 391.745 286.501 392.203C286.893 392.595 287.449 392.791 288.167 392.791C288.951 392.791 289.67 392.66 290.323 392.399C291.042 392.072 291.565 391.909 291.891 391.909C292.283 392.17 292.512 392.497 292.577 392.889C292.643 393.281 292.675 393.64 292.675 393.967C291.369 395.012 290.029 395.861 288.657 396.515C287.285 397.233 285.75 397.593 284.051 397.593C282.483 397.593 281.177 397.331 280.131 396.809C279.151 396.286 278.335 395.567 277.681 394.653C277.028 393.738 276.571 392.693 276.309 391.517C276.048 390.341 275.917 389.067 275.917 387.695C275.917 385.473 276.211 383.285 276.799 381.129C277.387 378.907 278.073 376.817 278.857 374.857C279.707 372.831 280.589 370.969 281.503 369.271C282.418 367.507 283.202 365.939 283.855 364.567ZM339.877 355.061C340.53 355.061 341.282 355.191 342.131 355.453C343.046 355.649 343.862 355.943 344.581 356.335C345.3 356.661 345.888 357.021 346.345 357.413C346.868 357.805 347.129 358.164 347.129 358.491C345.822 361.235 344.614 364.011 343.503 366.821C342.392 369.565 341.445 372.211 340.661 374.759C339.877 377.307 339.256 379.691 338.799 381.913C338.407 384.134 338.211 386.061 338.211 387.695C338.211 389.524 338.407 391.059 338.799 392.301C339.191 393.477 339.844 394.326 340.759 394.849C339.975 395.371 338.962 395.796 337.721 396.123C336.48 396.449 335.369 396.613 334.389 396.613C330.861 396.613 329.097 394.195 329.097 389.361C329.097 385.637 330.338 380.541 332.821 374.073C331.514 377.078 330.012 379.92 328.313 382.599C326.614 385.212 324.883 387.531 323.119 389.557C321.355 391.582 319.558 393.248 317.729 394.555C315.965 395.796 314.332 396.547 312.829 396.809C310.412 396.678 308.452 395.535 306.949 393.379C305.446 391.157 304.695 388.348 304.695 384.951C304.695 381.292 305.479 377.437 307.047 373.387C308.615 369.336 310.608 365.579 313.025 362.117C315.508 358.654 318.186 355.779 321.061 353.493C323.936 351.141 326.712 349.899 329.391 349.769C330.044 349.965 330.763 350.357 331.547 350.945C332.396 351.533 333.18 352.219 333.899 353.003C334.683 353.787 335.336 354.603 335.859 355.453C336.382 356.237 336.676 356.923 336.741 357.511C334.128 357.903 331.416 359.177 328.607 361.333C325.863 363.489 323.348 366.102 321.061 369.173C318.84 372.178 317.01 375.412 315.573 378.875C314.136 382.337 313.417 385.571 313.417 388.577C313.417 389.818 313.874 390.602 314.789 390.929C316.684 390.537 318.872 388.936 321.355 386.127C323.838 383.252 326.843 378.842 330.371 372.897C331.024 371.721 331.743 370.414 332.527 368.977C333.376 367.539 334.226 366.037 335.075 364.469C335.924 362.901 336.741 361.333 337.525 359.765C338.374 358.131 339.158 356.563 339.877 355.061ZM389.83 355.649C389.765 356.89 389.536 358.197 389.144 359.569C388.818 360.875 388.393 362.084 387.87 363.195C387.348 364.24 386.792 365.122 386.204 365.841C385.616 366.559 385.061 366.919 384.538 366.919C383.82 366.853 383.395 366.363 383.264 365.449C383.264 365.253 383.33 364.959 383.46 364.567C383.656 364.109 383.852 363.619 384.048 363.097C384.244 362.574 384.408 362.051 384.538 361.529C384.734 361.006 384.832 360.549 384.832 360.157C384.832 359.242 384.604 358.491 384.146 357.903C383.754 357.249 383.199 356.923 382.48 356.923C379.867 356.923 377.874 358.556 376.502 361.823C375.13 365.089 374.444 369.891 374.444 376.229C374.444 376.882 374.477 377.274 374.542 377.405C375.914 377.339 377.123 377.307 378.168 377.307C379.279 377.241 380.357 377.209 381.402 377.209C381.468 377.339 381.5 377.601 381.5 377.993C381.5 378.581 381.37 379.005 381.108 379.267C379.606 379.593 378.397 379.887 377.482 380.149C376.633 380.345 375.98 380.541 375.522 380.737C375.065 380.933 374.771 381.161 374.64 381.423C374.575 381.619 374.542 381.913 374.542 382.305C374.542 382.827 374.542 383.35 374.542 383.873C374.608 384.395 374.64 385.049 374.64 385.833C374.64 391.321 373.138 395.731 370.132 399.063C367.192 402.395 363.076 404.322 357.784 404.845C356.87 404.779 355.922 404.518 354.942 404.061C353.962 403.603 353.015 403.015 352.1 402.297C351.251 401.578 350.5 400.761 349.846 399.847C349.193 398.997 348.736 398.115 348.474 397.201C348.474 394.718 348.997 392.366 350.042 390.145C351.088 387.858 352.492 385.865 354.256 384.167C356.086 382.403 358.209 380.998 360.626 379.953C363.109 378.842 365.788 378.189 368.662 377.993C368.662 376.359 368.499 374.759 368.172 373.191C367.846 371.623 367.486 370.12 367.094 368.683C366.768 367.18 366.441 365.743 366.114 364.371C365.788 362.933 365.624 361.529 365.624 360.157C365.624 358.393 365.984 356.661 366.702 354.963C367.421 353.199 368.368 351.598 369.544 350.161C370.72 348.658 372.092 347.384 373.66 346.339C375.228 345.293 376.862 344.575 378.56 344.183C379.279 344.379 380.226 344.967 381.402 345.947C382.644 346.861 383.852 347.907 385.028 349.083C386.204 350.259 387.25 351.467 388.164 352.709C389.079 353.885 389.634 354.865 389.83 355.649ZM357.49 400.337C359.058 399.683 360.528 398.736 361.9 397.495C363.338 396.253 364.579 394.849 365.624 393.281C366.67 391.713 367.486 390.047 368.074 388.283C368.728 386.519 369.054 384.787 369.054 383.089C367.748 383.285 366.31 383.905 364.742 384.951C363.174 385.931 361.704 387.139 360.332 388.577C358.96 389.949 357.817 391.386 356.902 392.889C355.988 394.391 355.53 395.698 355.53 396.809C355.53 398.246 356.184 399.422 357.49 400.337ZM393.917 388.087C393.917 387.499 393.95 386.78 394.015 385.931C394.146 385.016 394.342 383.84 394.603 382.403C394.864 380.9 395.191 379.103 395.583 377.013C396.04 374.922 396.596 372.407 397.249 369.467C397.38 368.813 397.674 367.768 398.131 366.331C398.588 364.893 399.176 363.391 399.895 361.823C400.679 360.189 401.594 358.621 402.639 357.119C403.75 355.616 405.056 354.505 406.559 353.787C407.67 354.048 409.14 354.734 410.969 355.845C412.798 356.89 414.366 358.36 415.673 360.255C414.17 361.953 412.896 363.652 411.851 365.351C410.871 367.049 409.956 368.813 409.107 370.643C408.323 372.472 407.572 374.367 406.853 376.327C406.2 378.287 405.448 380.345 404.599 382.501C403.88 384.33 403.227 386.225 402.639 388.185C402.051 390.079 401.724 391.745 401.659 393.183C401.659 394.359 401.626 395.175 401.561 395.633C401.561 396.155 401.398 396.417 401.071 396.417C400.81 396.417 400.287 396.253 399.503 395.927C398.719 395.6 397.902 395.11 397.053 394.457C396.269 393.738 395.55 392.856 394.897 391.811C394.244 390.765 393.917 389.524 393.917 388.087ZM412.635 345.555C412.635 345.163 412.733 344.575 412.929 343.791C412.602 343.464 412.308 342.974 412.047 342.321C411.851 341.667 411.753 341.079 411.753 340.557C411.753 339.969 411.818 339.185 411.949 338.205C412.145 337.159 412.374 336.049 412.635 334.873C412.896 333.697 413.223 332.488 413.615 331.247C414.007 329.94 414.399 328.764 414.791 327.719C415.575 327.719 416.522 327.947 417.633 328.405C418.809 328.797 419.985 329.352 421.161 330.071C422.337 330.724 423.415 331.475 424.395 332.325C425.375 333.109 426.126 333.86 426.649 334.579C425.93 335.297 424.983 336.31 423.807 337.617C422.631 338.858 421.488 340.197 420.377 341.635C419.266 343.007 418.254 344.313 417.339 345.555C416.424 346.796 415.836 347.678 415.575 348.201C414.791 348.07 414.105 347.743 413.517 347.221C412.929 346.633 412.635 346.077 412.635 345.555ZM515.301 341.831C515.301 345.424 514.386 348.854 512.557 352.121C510.793 355.387 508.376 358.262 505.305 360.745C502.3 363.162 498.739 365.089 494.623 366.527C490.572 367.964 486.26 368.683 481.687 368.683C480.054 368.683 478.747 368.487 477.767 368.095C476.852 367.637 475.807 366.788 474.631 365.547C471.364 372.668 468.686 379.234 466.595 385.245C464.57 391.19 462.969 396.972 461.793 402.591C459.31 402.003 457.285 400.957 455.717 399.455C454.149 398.017 452.712 396.188 451.405 393.967C452.058 392.725 452.842 391.092 453.757 389.067C454.672 387.041 455.782 384.559 457.089 381.619C458.396 378.613 459.898 375.053 461.597 370.937C463.361 366.755 465.419 361.888 467.771 356.335C468.816 353.787 469.731 351.565 470.515 349.671C471.299 347.776 471.985 346.012 472.573 344.379C473.161 342.68 473.684 341.014 474.141 339.381C474.664 337.747 475.186 335.951 475.709 333.991C472.638 334.971 469.796 336.114 467.183 337.421C464.635 338.727 462.512 340.099 460.813 341.537C460.225 341.145 459.604 340.557 458.951 339.773C458.363 338.989 457.808 338.139 457.285 337.225C456.762 336.245 456.305 335.265 455.913 334.285C455.521 333.305 455.292 332.423 455.227 331.639C457.122 330.332 459.474 329.123 462.283 328.013C465.092 326.902 468.098 325.955 471.299 325.171C474.5 324.321 477.8 323.668 481.197 323.211C484.66 322.753 487.959 322.525 491.095 322.525C494.819 322.525 498.184 323.015 501.189 323.995C504.194 324.909 506.742 326.216 508.833 327.915C510.924 329.613 512.524 331.639 513.635 333.991C514.746 336.343 515.301 338.956 515.301 341.831ZM497.857 330.071C495.374 330.071 492.826 330.267 490.213 330.659L491.389 332.423C490.736 333.272 489.919 334.546 488.939 336.245C487.959 337.943 486.881 340.001 485.705 342.419C484.529 344.771 483.222 347.417 481.785 350.357C480.413 353.297 478.943 356.4 477.375 359.667C482.471 359.667 487.11 359.209 491.291 358.295C495.472 357.315 499.033 356.008 501.973 354.375C504.978 352.676 507.298 350.716 508.931 348.495C510.63 346.273 511.479 343.889 511.479 341.341C511.479 337.943 510.336 335.232 508.049 333.207C505.762 331.116 502.365 330.071 497.857 330.071ZM548.425 354.081C548.164 358.131 547.445 361.627 546.269 364.567C545.093 367.441 543.394 369.989 541.173 372.211C539.017 374.367 536.371 376.327 533.235 378.091C530.099 379.855 526.44 381.553 522.259 383.187C522.259 383.579 522.226 384.003 522.161 384.461C522.161 384.853 522.161 385.277 522.161 385.735C522.161 386.584 522.226 387.466 522.357 388.381C522.488 389.295 522.716 390.145 523.043 390.929C523.37 391.713 523.827 392.366 524.415 392.889C525.003 393.346 525.754 393.575 526.669 393.575C528.433 393.575 530.164 393.183 531.863 392.399C533.562 391.615 535.162 390.667 536.665 389.557C538.233 388.381 539.67 387.139 540.977 385.833C542.349 384.461 543.558 383.219 544.603 382.109C545.256 382.697 545.812 383.252 546.269 383.775C543.329 387.695 540.095 390.961 536.567 393.575C533.104 396.123 529.805 397.756 526.669 398.475C522.161 397.952 518.633 396.319 516.085 393.575C513.602 390.765 512.361 387.401 512.361 383.481C512.361 380.802 512.72 378.091 513.439 375.347C514.223 372.537 515.268 369.859 516.575 367.311C517.947 364.697 519.515 362.247 521.279 359.961C523.108 357.674 525.036 355.681 527.061 353.983C529.152 352.284 531.275 350.945 533.431 349.965C535.652 348.985 537.841 348.495 539.997 348.495C543.002 348.887 545.812 350.749 548.425 354.081ZM541.663 357.315C539.899 357.576 538.07 358.295 536.175 359.471C534.28 360.647 532.484 362.215 530.785 364.175C529.152 366.135 527.649 368.421 526.277 371.035C524.905 373.648 523.827 376.457 523.043 379.463C528.27 376.849 532.614 373.648 536.077 369.859C539.54 366.004 541.402 361.823 541.663 357.315ZM554.53 392.693C554.857 390.798 555.412 388.315 556.196 385.245C557.045 382.109 558.025 378.809 559.136 375.347C560.247 371.819 561.423 368.291 562.664 364.763C563.905 361.235 565.114 358.066 566.29 355.257C567.139 353.231 567.891 351.663 568.544 350.553C569.197 349.377 569.916 348.397 570.7 347.613C571.615 347.743 572.562 347.972 573.542 348.299C574.522 348.625 575.469 349.017 576.384 349.475C577.299 349.932 578.115 350.422 578.834 350.945C579.553 351.402 580.108 351.859 580.5 352.317C578.736 354.407 577.168 356.792 575.796 359.471C574.489 362.149 573.15 365.579 571.778 369.761C575.306 366.625 578.409 363.619 581.088 360.745C583.832 357.87 586.38 354.669 588.732 351.141C589.124 350.814 589.81 350.651 590.79 350.651C591.705 350.651 592.587 350.814 593.436 351.141C594.285 351.402 594.873 351.794 595.2 352.317C594.024 355.453 593.436 358.556 593.436 361.627C593.436 364.501 593.861 366.657 594.71 368.095C594.645 368.487 594.187 369.238 593.338 370.349C592.554 371.459 591.672 372.505 590.692 373.485C588.928 372.57 587.36 371.329 585.988 369.761C584.616 368.127 583.603 366.363 582.95 364.469C579.879 366.625 577.266 368.748 575.11 370.839C572.954 372.864 571.092 375.151 569.524 377.699C568.021 380.181 566.715 383.056 565.604 386.323C564.559 389.589 563.546 393.477 562.566 397.985C561.978 397.919 561.259 397.691 560.41 397.299C559.626 396.972 558.809 396.547 557.96 396.025C557.176 395.502 556.457 394.947 555.804 394.359C555.151 393.771 554.726 393.215 554.53 392.693ZM600.523 385.441C600.523 383.089 601.111 379.822 602.287 375.641C603.529 371.459 605.129 366.886 607.089 361.921C609.049 356.955 611.271 351.827 613.753 346.535C616.236 341.243 618.719 336.31 621.201 331.737C623.749 327.163 626.167 323.211 628.453 319.879C630.805 316.547 632.798 314.293 634.431 313.117C635.346 313.182 636.326 313.574 637.371 314.293C638.482 315.011 639.495 315.893 640.409 316.939C641.324 317.919 642.075 318.964 642.663 320.075C643.317 321.185 643.643 322.198 643.643 323.113C640.703 325.465 637.698 328.503 634.627 332.227C631.622 335.885 628.747 339.936 626.003 344.379C623.259 348.756 620.711 353.427 618.359 358.393C616.073 363.293 614.145 368.127 612.577 372.897C614.668 369.303 616.857 366.037 619.143 363.097C621.43 360.157 623.717 357.641 626.003 355.551C628.29 353.46 630.511 351.859 632.667 350.749C634.889 349.573 636.979 348.952 638.939 348.887C641.814 350.977 643.251 353.754 643.251 357.217C643.251 359.307 642.827 361.431 641.977 363.587C641.128 365.677 639.985 367.637 638.547 369.467C637.175 371.231 635.575 372.766 633.745 374.073C631.981 375.314 630.119 376.131 628.159 376.523C628.813 378.809 629.629 381.129 630.609 383.481C631.655 385.833 632.863 388.119 634.235 390.341C635.673 392.562 637.273 394.62 639.037 396.515C640.867 398.409 642.925 400.01 645.211 401.317C644.885 401.97 644.395 402.623 643.741 403.277C643.088 403.93 642.304 404.485 641.389 404.943C640.475 405.465 639.462 405.857 638.351 406.119C637.306 406.445 636.261 406.609 635.215 406.609C633.451 406.609 631.785 405.727 630.217 403.963C628.715 402.199 627.343 399.651 626.101 396.319C625.121 393.64 624.174 390.439 623.259 386.715C622.345 382.991 621.528 379.103 620.809 375.053C621.724 374.465 622.867 373.615 624.239 372.505C625.611 371.329 627.049 369.989 628.551 368.487C634.301 362.933 637.175 358.131 637.175 354.081C637.175 353.558 636.816 353.297 636.097 353.297C634.791 353.362 633.255 353.983 631.491 355.159C629.727 356.335 627.833 357.968 625.807 360.059C623.847 362.149 621.822 364.599 619.731 367.409C617.706 370.218 615.746 373.256 613.851 376.523C613.067 377.829 612.349 379.332 611.695 381.031C611.042 382.729 610.454 384.493 609.931 386.323C609.474 388.087 609.115 389.851 608.853 391.615C608.592 393.379 608.461 395.012 608.461 396.515C608.461 397.429 608.559 398.181 608.755 398.769C606.73 398.573 605.489 398.05 605.031 397.201C604.509 396.417 604.051 395.763 603.659 395.241C603.333 394.783 602.973 394.391 602.581 394.065C601.993 393.607 601.503 392.627 601.111 391.125C600.719 389.622 600.523 387.727 600.523 385.441ZM686.292 355.061C686.945 355.061 687.696 355.191 688.546 355.453C689.46 355.649 690.277 355.943 690.996 356.335C691.714 356.661 692.302 357.021 692.76 357.413C693.282 357.805 693.544 358.164 693.544 358.491C692.237 361.235 691.028 364.011 689.918 366.821C688.807 369.565 687.86 372.211 687.076 374.759C686.292 377.307 685.671 379.691 685.214 381.913C684.822 384.134 684.626 386.061 684.626 387.695C684.626 389.524 684.822 391.059 685.214 392.301C685.606 393.477 686.259 394.326 687.174 394.849C686.39 395.371 685.377 395.796 684.136 396.123C682.894 396.449 681.784 396.613 680.804 396.613C677.276 396.613 675.512 394.195 675.512 389.361C675.512 385.637 676.753 380.541 679.236 374.073C677.929 377.078 676.426 379.92 674.728 382.599C673.029 385.212 671.298 387.531 669.534 389.557C667.77 391.582 665.973 393.248 664.144 394.555C662.38 395.796 660.746 396.547 659.244 396.809C656.826 396.678 654.866 395.535 653.364 393.379C651.861 391.157 651.11 388.348 651.11 384.951C651.11 381.292 651.894 377.437 653.462 373.387C655.03 369.336 657.022 365.579 659.44 362.117C661.922 358.654 664.601 355.779 667.476 353.493C670.35 351.141 673.127 349.899 675.806 349.769C676.459 349.965 677.178 350.357 677.962 350.945C678.811 351.533 679.595 352.219 680.314 353.003C681.098 353.787 681.751 354.603 682.274 355.453C682.796 356.237 683.09 356.923 683.156 357.511C680.542 357.903 677.831 359.177 675.022 361.333C672.278 363.489 669.762 366.102 667.476 369.173C665.254 372.178 663.425 375.412 661.988 378.875C660.55 382.337 659.832 385.571 659.832 388.577C659.832 389.818 660.289 390.602 661.204 390.929C663.098 390.537 665.287 388.936 667.77 386.127C670.252 383.252 673.258 378.842 676.786 372.897C677.439 371.721 678.158 370.414 678.942 368.977C679.791 367.539 680.64 366.037 681.49 364.469C682.339 362.901 683.156 361.333 683.94 359.765C684.789 358.131 685.573 356.563 686.292 355.061ZM700.083 392.693C700.41 390.798 700.965 388.315 701.749 385.245C702.598 382.109 703.578 378.809 704.689 375.347C705.8 371.819 706.976 368.291 708.217 364.763C709.458 361.235 710.667 358.066 711.843 355.257C712.692 353.231 713.444 351.663 714.097 350.553C714.75 349.377 715.469 348.397 716.253 347.613C717.168 347.743 718.115 347.972 719.095 348.299C720.075 348.625 721.022 349.017 721.937 349.475C722.852 349.932 723.668 350.422 724.387 350.945C725.106 351.402 725.661 351.859 726.053 352.317C724.289 354.407 722.721 356.792 721.349 359.471C720.042 362.149 718.703 365.579 717.331 369.761C720.859 366.625 723.962 363.619 726.641 360.745C729.385 357.87 731.933 354.669 734.285 351.141C734.677 350.814 735.363 350.651 736.343 350.651C737.258 350.651 738.14 350.814 738.989 351.141C739.838 351.402 740.426 351.794 740.753 352.317C739.577 355.453 738.989 358.556 738.989 361.627C738.989 364.501 739.414 366.657 740.263 368.095C740.198 368.487 739.74 369.238 738.891 370.349C738.107 371.459 737.225 372.505 736.245 373.485C734.481 372.57 732.913 371.329 731.541 369.761C730.169 368.127 729.156 366.363 728.503 364.469C725.432 366.625 722.819 368.748 720.663 370.839C718.507 372.864 716.645 375.151 715.077 377.699C713.574 380.181 712.268 383.056 711.157 386.323C710.112 389.589 709.099 393.477 708.119 397.985C707.531 397.919 706.812 397.691 705.963 397.299C705.179 396.972 704.362 396.547 703.513 396.025C702.729 395.502 702.01 394.947 701.357 394.359C700.704 393.771 700.279 393.215 700.083 392.693ZM779.69 355.061C780.344 355.061 781.095 355.191 781.944 355.453C782.859 355.649 783.676 355.943 784.394 356.335C785.113 356.661 785.701 357.021 786.158 357.413C786.681 357.805 786.942 358.164 786.942 358.491C785.636 361.235 784.427 364.011 783.316 366.821C782.206 369.565 781.258 372.211 780.474 374.759C779.69 377.307 779.07 379.691 778.612 381.913C778.22 384.134 778.024 386.061 778.024 387.695C778.024 389.524 778.22 391.059 778.612 392.301C779.004 393.477 779.658 394.326 780.572 394.849C779.788 395.371 778.776 395.796 777.534 396.123C776.293 396.449 775.182 396.613 774.202 396.613C770.674 396.613 768.91 394.195 768.91 389.361C768.91 385.637 770.152 380.541 772.634 374.073C771.328 377.078 769.825 379.92 768.126 382.599C766.428 385.212 764.696 387.531 762.932 389.557C761.168 391.582 759.372 393.248 757.542 394.555C755.778 395.796 754.145 396.547 752.642 396.809C750.225 396.678 748.265 395.535 746.762 393.379C745.26 391.157 744.508 388.348 744.508 384.951C744.508 381.292 745.292 377.437 746.86 373.387C748.428 369.336 750.421 365.579 752.838 362.117C755.321 358.654 758 355.779 760.874 353.493C763.749 351.141 766.526 349.899 769.204 349.769C769.858 349.965 770.576 350.357 771.36 350.945C772.21 351.533 772.994 352.219 773.712 353.003C774.496 353.787 775.15 354.603 775.672 355.453C776.195 356.237 776.489 356.923 776.554 357.511C773.941 357.903 771.23 359.177 768.42 361.333C765.676 363.489 763.161 366.102 760.874 369.173C758.653 372.178 756.824 375.412 755.386 378.875C753.949 382.337 753.23 385.571 753.23 388.577C753.23 389.818 753.688 390.602 754.602 390.929C756.497 390.537 758.686 388.936 761.168 386.127C763.651 383.252 766.656 378.842 770.184 372.897C770.838 371.721 771.556 370.414 772.34 368.977C773.19 367.539 774.039 366.037 774.888 364.469C775.738 362.901 776.554 361.333 777.338 359.765C778.188 358.131 778.972 356.563 779.69 355.061ZM891.019 340.655C891.019 344.705 889.908 348.331 887.687 351.533C885.466 354.669 882.428 357.282 878.573 359.373C881.056 361.071 883.016 363.162 884.453 365.645C885.956 368.062 886.707 370.741 886.707 373.681C886.707 377.209 885.629 380.704 883.473 384.167C881.382 387.564 878.573 390.602 875.045 393.281C871.517 395.894 867.499 398.017 862.991 399.651C858.483 401.284 853.877 402.101 849.173 402.101C844.077 402.101 839.602 401.121 835.747 399.161C831.958 397.266 828.985 394.555 826.829 391.027C827.482 389.067 828.332 386.649 829.377 383.775C830.488 380.835 831.696 377.764 833.003 374.563C834.31 371.296 835.616 368.062 836.923 364.861C838.295 361.659 839.569 358.785 840.745 356.237C843.228 350.683 845.449 346.077 847.409 342.419C849.369 338.76 851.166 335.853 852.799 333.697C849.206 334.807 845.939 336.081 842.999 337.519C840.059 338.891 837.903 340.23 836.531 341.537C835.943 341.145 835.322 340.557 834.669 339.773C834.081 338.989 833.493 338.139 832.905 337.225C832.382 336.245 831.925 335.265 831.533 334.285C831.206 333.305 831.01 332.423 830.945 331.639C832.644 330.463 834.832 329.352 837.511 328.307C840.255 327.196 843.228 326.249 846.429 325.465C849.63 324.681 852.897 324.06 856.229 323.603C859.626 323.145 862.86 322.917 865.931 322.917C873.771 322.917 879.912 324.485 884.355 327.621C888.798 330.757 891.019 335.101 891.019 340.655ZM853.681 364.077C852.44 363.489 851.296 362.607 850.251 361.431C848.748 364.763 847.311 368.029 845.939 371.231C844.632 374.432 843.456 377.405 842.411 380.149C841.366 382.893 840.516 385.277 839.863 387.303C839.21 389.328 838.85 390.798 838.785 391.713C839.7 392.235 840.778 392.627 842.019 392.889C843.326 393.15 844.926 393.281 846.821 393.281C851.264 393.281 855.51 392.66 859.561 391.419C863.612 390.177 867.172 388.511 870.243 386.421C873.314 384.265 875.764 381.815 877.593 379.071C879.422 376.327 880.337 373.452 880.337 370.447C880.337 366.135 878.475 363.031 874.751 361.137C869.655 363.227 863.906 364.273 857.503 364.273C856.588 364.273 855.87 364.273 855.347 364.273C854.89 364.273 854.334 364.207 853.681 364.077ZM872.693 330.071C871.321 330.071 869.851 330.169 868.283 330.365C866.78 330.495 865.18 330.724 863.481 331.051C863.742 331.312 863.938 331.606 864.069 331.933C864.265 332.194 864.428 332.488 864.559 332.815C863.971 333.599 863.252 334.742 862.403 336.245C861.554 337.747 860.606 339.511 859.561 341.537C858.516 343.497 857.405 345.685 856.229 348.103C855.118 350.52 853.975 353.003 852.799 355.551C853.91 355.289 855.249 355.093 856.817 354.963C858.45 354.767 860.051 354.669 861.619 354.669C862.468 354.669 863.285 354.701 864.069 354.767C864.918 354.832 865.735 354.93 866.519 355.061C869.655 354.538 872.464 353.787 874.947 352.807C877.495 351.761 879.684 350.585 881.513 349.279C883.342 347.907 884.747 346.404 885.727 344.771C886.707 343.137 887.197 341.406 887.197 339.577C887.197 336.441 885.956 334.089 883.473 332.521C880.99 330.887 877.397 330.071 872.693 330.071ZM931.273 355.061C931.926 355.061 932.677 355.191 933.527 355.453C934.441 355.649 935.258 355.943 935.977 356.335C936.695 356.661 937.283 357.021 937.741 357.413C938.263 357.805 938.525 358.164 938.525 358.491C937.218 361.235 936.009 364.011 934.899 366.821C933.788 369.565 932.841 372.211 932.057 374.759C931.273 377.307 930.652 379.691 930.195 381.913C929.803 384.134 929.607 386.061 929.607 387.695C929.607 389.524 929.803 391.059 930.195 392.301C930.587 393.477 931.24 394.326 932.155 394.849C931.371 395.371 930.358 395.796 929.117 396.123C927.875 396.449 926.765 396.613 925.785 396.613C922.257 396.613 920.493 394.195 920.493 389.361C920.493 385.637 921.734 380.541 924.217 374.073C922.91 377.078 921.407 379.92 919.709 382.599C918.01 385.212 916.279 387.531 914.515 389.557C912.751 391.582 910.954 393.248 909.125 394.555C907.361 395.796 905.727 396.547 904.225 396.809C901.807 396.678 899.847 395.535 898.345 393.379C896.842 391.157 896.091 388.348 896.091 384.951C896.091 381.292 896.875 377.437 898.443 373.387C900.011 369.336 902.003 365.579 904.421 362.117C906.903 358.654 909.582 355.779 912.457 353.493C915.331 351.141 918.108 349.899 920.787 349.769C921.44 349.965 922.159 350.357 922.943 350.945C923.792 351.533 924.576 352.219 925.295 353.003C926.079 353.787 926.732 354.603 927.255 355.453C927.777 356.237 928.071 356.923 928.137 357.511C925.523 357.903 922.812 359.177 920.003 361.333C917.259 363.489 914.743 366.102 912.457 369.173C910.235 372.178 908.406 375.412 906.969 378.875C905.531 382.337 904.813 385.571 904.813 388.577C904.813 389.818 905.27 390.602 906.185 390.929C908.079 390.537 910.268 388.936 912.751 386.127C915.233 383.252 918.239 378.842 921.767 372.897C922.42 371.721 923.139 370.414 923.923 368.977C924.772 367.539 925.621 366.037 926.471 364.469C927.32 362.901 928.137 361.333 928.921 359.765C929.77 358.131 930.554 356.563 931.273 355.061ZM963.292 347.123C964.99 347.645 966.591 348.821 968.094 350.651C969.596 352.415 970.707 354.375 971.426 356.531C970.707 358.295 969.596 360.418 968.094 362.901C966.591 365.383 965.088 367.931 963.586 370.545C962.083 373.093 960.711 375.543 959.47 377.895C958.294 380.181 957.608 382.076 957.412 383.579C958.457 382.468 959.6 381.194 960.842 379.757C962.148 378.254 963.39 376.784 964.566 375.347C965.807 373.844 966.95 372.505 967.996 371.329C969.041 370.087 969.858 369.173 970.446 368.585C971.687 367.278 973.157 365.775 974.856 364.077C976.554 362.313 978.318 360.679 980.148 359.177C982.042 357.609 983.937 356.302 985.832 355.257C987.726 354.146 989.458 353.591 991.026 353.591C992.724 353.591 994.129 354.179 995.24 355.355C996.416 356.465 997.33 357.641 997.984 358.883C997.984 359.013 997.722 359.209 997.2 359.471C996.742 359.667 996.056 360.287 995.142 361.333C994.227 362.509 993.182 364.142 992.006 366.233C990.895 368.258 989.784 370.479 988.674 372.897C987.628 375.249 986.746 377.666 986.028 380.149C985.309 382.631 984.95 384.885 984.95 386.911C984.95 388.544 985.146 389.589 985.538 390.047C985.995 390.504 986.616 390.733 987.4 390.733C988.118 390.733 988.87 390.569 989.654 390.243C990.438 389.916 991.058 389.753 991.516 389.753C991.777 389.883 991.973 390.177 992.104 390.635C992.3 391.027 992.398 391.386 992.398 391.713C991.875 392.17 991.254 392.627 990.536 393.085C989.817 393.542 989.066 393.967 988.282 394.359C987.498 394.751 986.714 395.077 985.93 395.339C985.211 395.6 984.558 395.731 983.97 395.731C982.075 395.731 980.507 395.437 979.266 394.849C978.09 394.326 977.142 393.607 976.424 392.693C975.77 391.778 975.313 390.7 975.052 389.459C974.79 388.152 974.66 386.78 974.66 385.343C974.66 384.559 974.725 383.677 974.856 382.697C974.986 381.717 975.248 380.573 975.64 379.267C976.032 377.895 976.587 376.294 977.306 374.465C978.024 372.57 978.939 370.316 980.05 367.703C979.919 367.703 979.037 368.16 977.404 369.075C975.77 369.989 974.006 371.394 972.112 373.289C969.041 376.229 966.264 379.136 963.782 382.011C961.364 384.885 958.882 388.087 956.334 391.615C954.896 393.64 953.622 395.339 952.512 396.711C951.466 398.148 950.552 399.095 949.768 399.553C948.396 398.769 947.383 397.658 946.73 396.221C946.076 394.849 945.586 393.411 945.26 391.909C945.26 390.667 945.423 389.099 945.75 387.205C946.142 385.31 946.632 383.219 947.22 380.933C947.873 378.581 948.657 376.131 949.572 373.583C950.486 371.035 951.499 368.487 952.61 365.939C955.092 360.189 957.346 355.681 959.372 352.415C961.462 349.148 962.769 347.384 963.292 347.123ZM1025.62 348.887C1026.93 348.887 1028.43 349.279 1030.13 350.063C1031.83 350.847 1033.33 351.859 1034.64 353.101C1034.31 350.487 1033.89 348.037 1033.37 345.751C1032.91 343.399 1032.19 340.981 1031.21 338.499C1030.29 336.016 1029.05 333.305 1027.49 330.365C1025.92 327.425 1023.96 324.06 1021.61 320.271C1021.8 319.683 1022.23 318.997 1022.88 318.213C1023.6 317.429 1024.38 316.71 1025.23 316.057C1026.15 315.338 1027.06 314.717 1027.98 314.195C1028.96 313.672 1029.87 313.345 1030.72 313.215C1032.55 315.24 1034.28 317.788 1035.91 320.859C1037.55 323.864 1038.98 327.131 1040.23 330.659C1041.47 334.121 1042.41 337.715 1043.07 341.439C1043.79 345.163 1044.15 348.723 1044.15 352.121C1044.15 355.518 1043.75 359.013 1042.97 362.607C1042.25 366.2 1041.21 369.728 1039.83 373.191C1038.53 376.588 1036.99 379.822 1035.23 382.893C1033.46 385.963 1031.54 388.707 1029.45 391.125C1027.42 393.542 1025.3 395.502 1023.08 397.005C1020.85 398.573 1018.63 399.553 1016.41 399.945C1011.9 399.422 1008.44 397.952 1006.02 395.535C1003.67 393.183 1002.5 389.916 1002.5 385.735C1002.5 383.513 1002.82 381.096 1003.48 378.483C1004.19 375.869 1005.11 373.289 1006.22 370.741C1007.4 368.127 1008.73 365.612 1010.24 363.195C1011.81 360.712 1013.44 358.491 1015.14 356.531C1016.9 354.571 1018.67 352.905 1020.43 351.533C1022.19 350.161 1023.92 349.279 1025.62 348.887ZM1015.63 396.025C1017.91 395.241 1020.2 393.509 1022.49 390.831C1024.77 388.152 1026.83 385.016 1028.66 381.423C1030.49 377.764 1031.96 373.877 1033.07 369.761C1034.25 365.579 1034.84 361.561 1034.84 357.707C1034.84 356.596 1034.84 355.91 1034.84 355.649C1034.84 355.387 1034.8 355.126 1034.74 354.865C1033.17 355.518 1031.5 356.629 1029.74 358.197C1027.98 359.765 1026.21 361.594 1024.45 363.685C1022.68 365.71 1021.02 367.931 1019.45 370.349C1017.88 372.766 1016.48 375.183 1015.24 377.601C1013.99 380.018 1013.01 382.337 1012.3 384.559C1011.58 386.78 1011.22 388.74 1011.22 390.439C1011.22 393.705 1012.69 395.567 1015.63 396.025ZM1050.67 388.087C1050.67 387.499 1050.71 386.78 1050.77 385.931C1050.9 385.016 1051.1 383.84 1051.36 382.403C1051.62 380.9 1051.95 379.103 1052.34 377.013C1052.8 374.922 1053.35 372.407 1054.01 369.467C1054.14 368.813 1054.43 367.768 1054.89 366.331C1055.35 364.893 1055.93 363.391 1056.65 361.823C1057.44 360.189 1058.35 358.621 1059.4 357.119C1060.51 355.616 1061.81 354.505 1063.32 353.787C1064.43 354.048 1065.9 354.734 1067.73 355.845C1069.56 356.89 1071.12 358.36 1072.43 360.255C1070.93 361.953 1069.65 363.652 1068.61 365.351C1067.63 367.049 1066.71 368.813 1065.86 370.643C1065.08 372.472 1064.33 374.367 1063.61 376.327C1062.96 378.287 1062.21 380.345 1061.36 382.501C1060.64 384.33 1059.98 386.225 1059.4 388.185C1058.81 390.079 1058.48 391.745 1058.42 393.183C1058.42 394.359 1058.38 395.175 1058.32 395.633C1058.32 396.155 1058.15 396.417 1057.83 396.417C1057.57 396.417 1057.04 396.253 1056.26 395.927C1055.48 395.6 1054.66 395.11 1053.81 394.457C1053.03 393.738 1052.31 392.856 1051.65 391.811C1051 390.765 1050.67 389.524 1050.67 388.087ZM1069.39 345.555C1069.39 345.163 1069.49 344.575 1069.69 343.791C1069.36 343.464 1069.07 342.974 1068.8 342.321C1068.61 341.667 1068.51 341.079 1068.51 340.557C1068.51 339.969 1068.58 339.185 1068.71 338.205C1068.9 337.159 1069.13 336.049 1069.39 334.873C1069.65 333.697 1069.98 332.488 1070.37 331.247C1070.76 329.94 1071.16 328.764 1071.55 327.719C1072.33 327.719 1073.28 327.947 1074.39 328.405C1075.57 328.797 1076.74 329.352 1077.92 330.071C1079.09 330.724 1080.17 331.475 1081.15 332.325C1082.13 333.109 1082.88 333.86 1083.41 334.579C1082.69 335.297 1081.74 336.31 1080.56 337.617C1079.39 338.858 1078.24 340.197 1077.13 341.635C1076.02 343.007 1075.01 344.313 1074.1 345.555C1073.18 346.796 1072.59 347.678 1072.33 348.201C1071.55 348.07 1070.86 347.743 1070.27 347.221C1069.69 346.633 1069.39 346.077 1069.39 345.555ZM1093.53 347.123C1095.23 347.645 1096.83 348.821 1098.33 350.651C1099.84 352.415 1100.95 354.375 1101.67 356.531C1100.95 358.295 1099.84 360.418 1098.33 362.901C1096.83 365.383 1095.33 367.931 1093.83 370.545C1092.32 373.093 1090.95 375.543 1089.71 377.895C1088.53 380.181 1087.85 382.076 1087.65 383.579C1088.7 382.468 1089.84 381.194 1091.08 379.757C1092.39 378.254 1093.63 376.784 1094.81 375.347C1096.05 373.844 1097.19 372.505 1098.24 371.329C1099.28 370.087 1100.1 369.173 1100.69 368.585C1101.93 367.278 1103.4 365.775 1105.1 364.077C1106.79 362.313 1108.56 360.679 1110.39 359.177C1112.28 357.609 1114.18 356.302 1116.07 355.257C1117.97 354.146 1119.7 353.591 1121.27 353.591C1122.96 353.591 1124.37 354.179 1125.48 355.355C1126.66 356.465 1127.57 357.641 1128.22 358.883C1128.22 359.013 1127.96 359.209 1127.44 359.471C1126.98 359.667 1126.3 360.287 1125.38 361.333C1124.47 362.509 1123.42 364.142 1122.25 366.233C1121.14 368.258 1120.02 370.479 1118.91 372.897C1117.87 375.249 1116.99 377.666 1116.27 380.149C1115.55 382.631 1115.19 384.885 1115.19 386.911C1115.19 388.544 1115.39 389.589 1115.78 390.047C1116.24 390.504 1116.86 390.733 1117.64 390.733C1118.36 390.733 1119.11 390.569 1119.89 390.243C1120.68 389.916 1121.3 389.753 1121.76 389.753C1122.02 389.883 1122.21 390.177 1122.34 390.635C1122.54 391.027 1122.64 391.386 1122.64 391.713C1122.12 392.17 1121.49 392.627 1120.78 393.085C1120.06 393.542 1119.31 393.967 1118.52 394.359C1117.74 394.751 1116.95 395.077 1116.17 395.339C1115.45 395.6 1114.8 395.731 1114.21 395.731C1112.32 395.731 1110.75 395.437 1109.51 394.849C1108.33 394.326 1107.38 393.607 1106.66 392.693C1106.01 391.778 1105.55 390.7 1105.29 389.459C1105.03 388.152 1104.9 386.78 1104.9 385.343C1104.9 384.559 1104.97 383.677 1105.1 382.697C1105.23 381.717 1105.49 380.573 1105.88 379.267C1106.27 377.895 1106.83 376.294 1107.55 374.465C1108.26 372.57 1109.18 370.316 1110.29 367.703C1110.16 367.703 1109.28 368.16 1107.64 369.075C1106.01 369.989 1104.25 371.394 1102.35 373.289C1099.28 376.229 1096.5 379.136 1094.02 382.011C1091.6 384.885 1089.12 388.087 1086.57 391.615C1085.14 393.64 1083.86 395.339 1082.75 396.711C1081.71 398.148 1080.79 399.095 1080.01 399.553C1078.64 398.769 1077.62 397.658 1076.97 396.221C1076.32 394.849 1075.83 393.411 1075.5 391.909C1075.5 390.667 1075.66 389.099 1075.99 387.205C1076.38 385.31 1076.87 383.219 1077.46 380.933C1078.11 378.581 1078.9 376.131 1079.81 373.583C1080.73 371.035 1081.74 368.487 1082.85 365.939C1085.33 360.189 1087.59 355.681 1089.61 352.415C1091.7 349.148 1093.01 347.384 1093.53 347.123ZM1114.7 423.857C1114.7 423.465 1114.83 423.106 1115.1 422.779C1115.36 422.452 1115.65 422.125 1115.98 421.799C1116.76 422.518 1117.45 423.073 1118.04 423.465C1118.56 423.857 1119.08 424.184 1119.6 424.445C1120.06 424.706 1120.55 424.87 1121.07 424.935C1121.6 425 1122.22 425.033 1122.94 425.033C1126.33 425.033 1129.57 424.118 1132.64 422.289C1135.71 420.525 1138.58 417.944 1141.26 414.547C1144.01 411.149 1146.49 407.001 1148.71 402.101C1150.93 397.201 1152.89 391.647 1154.59 385.441C1153.81 386.225 1152.83 387.107 1151.65 388.087C1150.54 389.001 1149.36 389.883 1148.12 390.733C1146.88 391.582 1145.64 392.366 1144.4 393.085C1143.22 393.803 1142.21 394.326 1141.36 394.653C1140.25 394.457 1139.2 393.999 1138.22 393.281C1137.31 392.497 1136.49 391.549 1135.77 390.439C1135.06 389.328 1134.5 388.087 1134.11 386.715C1133.72 385.277 1133.52 383.775 1133.52 382.207C1133.52 379.659 1133.98 377.045 1134.89 374.367C1135.87 371.688 1137.15 369.075 1138.71 366.527C1140.28 363.913 1142.11 361.463 1144.2 359.177C1146.36 356.89 1148.61 354.897 1150.96 353.199C1153.38 351.5 1155.8 350.161 1158.22 349.181C1160.7 348.135 1163.12 347.613 1165.47 347.613C1167.75 347.613 1169.45 348.103 1170.56 349.083C1171.74 349.997 1172.59 351.598 1173.11 353.885C1172.39 353.493 1171.48 353.297 1170.37 353.297C1168.8 353.297 1166.97 353.917 1164.88 355.159C1162.85 356.4 1160.76 358.033 1158.61 360.059C1156.52 362.019 1154.43 364.305 1152.34 366.919C1150.25 369.467 1148.38 372.08 1146.75 374.759C1145.18 377.437 1143.88 380.051 1142.83 382.599C1141.85 385.147 1141.36 387.433 1141.36 389.459C1141.36 389.916 1141.39 390.21 1141.46 390.341C1141.52 390.406 1141.62 390.439 1141.75 390.439C1142.34 390.439 1143.12 390.112 1144.1 389.459C1145.15 388.805 1146.29 387.989 1147.53 387.009C1148.84 385.963 1150.18 384.787 1151.55 383.481C1152.92 382.109 1154.23 380.737 1155.47 379.365C1158.28 376.229 1160.83 372.733 1163.12 368.879C1165.47 364.959 1167.33 361.169 1168.7 357.511C1170.47 357.641 1172.03 357.935 1173.41 358.393C1174.78 358.85 1175.73 359.34 1176.25 359.863C1174.03 364.959 1172.23 369.238 1170.86 372.701C1169.55 376.163 1168.41 379.234 1167.43 381.913C1165.66 386.617 1164 390.896 1162.43 394.751C1160.93 398.671 1159.36 402.264 1157.73 405.531C1156.16 408.863 1154.43 411.933 1152.53 414.743C1150.7 417.617 1148.61 420.361 1146.26 422.975C1145.15 424.216 1143.88 425.294 1142.44 426.209C1141.07 427.189 1139.63 428.005 1138.13 428.659C1136.69 429.312 1135.25 429.802 1133.81 430.129C1132.44 430.456 1131.17 430.619 1129.99 430.619C1128.42 430.619 1126.82 430.423 1125.19 430.031C1123.56 429.704 1122.05 429.214 1120.68 428.561C1119.24 427.973 1118 427.254 1116.96 426.405C1115.91 425.621 1115.16 424.771 1114.7 423.857Z" fill="white"/>
</g>
<defs>
<clipPath id="clip0_3_45">
<rect width="1175" height="452" fill="white"/>
</clipPath>
</defs>
</svg>
